<?xml version="1.0" encoding="UTF-8"?><svg id="Camada_1" data-name="Camada 1" xmlns="http://www.w3.org/2000/svg" version="1.1" viewBox="0 0 500 500"><defs><style>.cls-1 {
        fill: #4932fa;
      }

      .cls-1, .cls-2, .cls-3 {
        stroke-width: 0px;
      }

      .cls-2 {
        fill: #e7215e;
      }

      .cls-3 {
        fill: #fff;
      }</style></defs><circle class="cls-3" cx="250" cy="250.1" r="250"/><g><path class="cls-2" d="M314.4,61.9l-69.2,69.2c-20.5,0-41,7.4-58.7,19.1-7.4,4.5-13.2,10.3-19.1,16.2-5.9,5.9-11.7,11.7-16.2,19.1-11.7,17.6-17.6,38-19.1,58.7,0,19.1,2.9,39.6,11.7,57.1l61.9-61.9,54.2,54.2-120.5,120.5c-10.3-7.4-20.5-14.6-29.3-23.4-8.8-8.8-17.6-19.1-24.9-30.8-10.3-14.6-17.6-29.3-22-45.4-20.9-63-10.6-133.7,30.4-186.4,4.5-5.9,10.3-11.7,16.2-17.6s11.7-11.7,17.6-16.2c52.8-41,123.4-52.8,185.3-30.8l1.5-1.5h.3Z"/><path class="cls-1" d="M390.8,108.7c8.8,8.8,17.6,19.1,23.4,29.3,8.8,13.2,16.2,26.3,20.5,41,23.4,63.4,14.6,136.7-29.3,192.7-4.5,5.9-10.3,11.7-16.2,17.6s-11.7,11.7-17.6,16.2c-55.7,43.9-129.3,52.8-192.7,29.3l66.3-66.3c23.4,0,48.3-5.9,69.2-19.1,7.4-4.5,13.2-8.8,19.1-16.2,5.9-7.4,11.7-11.7,16.2-19.1,13.2-20.5,20.5-43.9,19.1-69.2,0-17.6-4.5-33.7-13.2-49.9l-61.9,61.9-54.2-54.2,121.9-119c10.3,7.4,20.5,14.6,30.8,24.9h-1.5v.3Z"/></g></svg>