<?xml version="1.0" encoding="UTF-8"?>
<svg xmlns="http://www.w3.org/2000/svg" xmlns:xlink="http://www.w3.org/1999/xlink" version="1.1" viewBox="0 0 100 100">
  <defs>
    <style>
      .cls-1 {
        fill: url(#Gradiente_sem_nome);
      }
    </style>
    <linearGradient id="Gradiente_sem_nome" data-name="Gradiente sem nome" x1="10.8" y1="51.3" x2="89.1" y2="51.3" gradientTransform="translate(0 101.3) scale(1 -1)" gradientUnits="userSpaceOnUse">
      <stop offset="0" stop-color="#4633fa"/>
      <stop offset="1" stop-color="#ff2c5e"/>
    </linearGradient>
  </defs>
  <!-- Generator: Adobe Illustrator 28.6.0, SVG Export Plug-In . SVG Version: 1.2.0 Build 709)  -->
  <g>
    <g id="Camada_1">
      <path class="cls-1" d="M84.2,15.7c0-1.9-1.2-3.8-3.1-4.5s-4-.3-5.3,1l-6.7,6.7c-7.3,7.3-17.3,11.5-27.7,11.5h-20.9c-5.4,0-9.8,4.4-9.8,9.8v14.6c0,5.4,4.4,9.8,9.8,9.8v19.5c0,2.7,2.1,4.9,4.9,4.9h9.8c2.7,0,4.9-2.2,4.9-4.9v-19.5h1.3c10.4,0,20.3,4.2,27.7,11.5l6.7,6.7c1.4,1.4,3.5,1.8,5.3,1s3.1-2.5,3.1-4.5v-22.6c2.8-1.3,4.9-5,4.9-9.3s-2-7.9-4.9-9.3V15.7h0ZM74.4,27.4v40.2c-9-8.1-20.8-12.7-32.9-12.7h-1.3v-14.6h1.3c12.2,0,23.9-4.6,32.9-12.7h0Z"/>
    </g>
  </g>
</svg>