<?xml version="1.0" encoding="UTF-8"?>
<svg xmlns="http://www.w3.org/2000/svg" xmlns:xlink="http://www.w3.org/1999/xlink" version="1.1" viewBox="0 0 105.4 107.2">
  <defs>
    <style>
      .cls-1 {
        fill: url(#Gradiente_sem_nome_2);
      }

      .cls-2 {
        fill: url(#Gradiente_sem_nome_2-2);
      }
    </style>
    <linearGradient id="Gradiente_sem_nome_2" data-name="Gradiente sem nome 2" x1="39.6" y1="90" x2="67.9" y2="90" gradientUnits="userSpaceOnUse">
      <stop offset="0" stop-color="#4633fa"/>
      <stop offset="1" stop-color="#ff2c5e"/>
    </linearGradient>
    <linearGradient id="Gradiente_sem_nome_2-2" data-name="Gradiente sem nome 2" x1="25.6" y1="44.3" x2="81.9" y2="44.3" xlink:href="#Gradiente_sem_nome_2"/>
  </defs>
  <!-- Generator: Adobe Illustrator 28.6.0, SVG Export Plug-In . SVG Version: 1.2.0 Build 709)  -->
  <g>
    <g id="Camada_1">
      <g id="Camada_2">
        <g>
          <path class="cls-1" d="M64.3,82.4h-21.1c-2,0-3.6,1.6-3.6,3.6v.5c0,2,1.6,3.6,3.6,3.6h3.5v.9c0,3.6,2.9,6.6,6.6,6.6h.9c3.6,0,6.6-2.9,6.6-6.6v-.9h3.5c2,0,3.6-1.6,3.6-3.6v-.5c0-2-1.6-3.6-3.6-3.6Z"/>
          <path class="cls-2" d="M50.5,12.1c-11.9,1.3-23.3,12.7-24.7,24.6-1.1,9,2.1,17.2,7.7,23,3.3,3.4,5.1,7.9,5.1,12.6h0c0,2.4,1.9,4.3,4.3,4.3h21.7c2.4,0,4.3-1.9,4.3-4.3,0-4.6,1.7-9.1,5-12.5,5-5.1,8-12,8-19.7,0-16.6-14.4-29.9-31.4-28ZM51,65.7c0,1.5-1.2,2.7-2.7,2.7s-2.7-1.2-2.7-2.7v-11.9c0-3.7-3-6.8-6.8-6.8s-2.7-1.2-2.7-2.7,1.2-2.7,2.7-2.7c6.8,0,12.3,5.5,12.3,12.3v11.9h0ZM68.8,47c-3.7,0-6.8,3-6.8,6.8v11.9c0,1.5-1.2,2.7-2.7,2.7s-2.7-1.2-2.7-2.7v-11.9c0-6.8,5.5-12.3,12.3-12.3s2.7,1.2,2.7,2.7-1.2,2.7-2.7,2.7h0Z"/>
        </g>
      </g>
    </g>
  </g>
</svg>