<?xml version="1.0" encoding="UTF-8"?><svg xmlns="http://www.w3.org/2000/svg" xmlns:xlink="http://www.w3.org/1999/xlink" version="1.1" viewBox="0 0 93.4 93.4"><defs><style>.cls-1 {
        fill: url(#Gradiente_sem_nome_2);
      }

      .cls-2 {
        fill: url(#Gradiente_sem_nome_2-2);
      }</style><linearGradient id="Gradiente_sem_nome_2" data-name="Gradiente sem nome 2" x1="15.6" y1="47.7" x2="79.2" y2="47.7" gradientUnits="userSpaceOnUse"><stop offset="0" stop-color="#4633fa"/><stop offset="1" stop-color="#ff2c5e"/></linearGradient><linearGradient id="Gradiente_sem_nome_2-2" data-name="Gradiente sem nome 2" x1="41.2" y1="29" x2="79.7" y2="29" xlink:href="#Gradiente_sem_nome_2"/></defs><!--Generator: Adobe Illustrator 28.6.0, SVG Export Plug-In . SVG Version: 1.2.0 Build 709)--><g><g id="Camada_2"><g><path class="cls-1" d="M58.2,41.5c0,6.2-4.9,11.2-10.8,11.2-6,0-10.8-5-10.8-11.2s4.9-11.2,10.8-11.2,1,0,1.5.1l6.2-6.2c-2.3-1.1-4.9-1.7-7.7-1.7-10.3,0-18.6,8.5-18.6,19s8.3,19,18.6,19c10.3,0,18.6-8.5,18.6-19s-.5-5.2-1.5-7.5l-6.3,6.3c0,.4,0,.8,0,1.1ZM66.9,66.6c7.5-5.8,12.3-14.9,12.3-25.1,0-3.5-.6-6.8-1.6-9.9l-1.7,1.7c-1.3,1.3-3,2-4.7,2s-.4,0-.6,0c.5,2,.9,4.1.9,6.3,0,13.2-10.8,24-24,24-13.2,0-24-10.8-24-24s10.8-24,24-24c2.5,0,4.9.4,7.2,1.1,0-1.7.7-3.3,1.9-4.6l2.2-2.2c-3.5-1.4-7.4-2.1-11.4-2.1-17.5,0-31.8,14.3-31.8,31.8s5.5,20.5,13.8,26.2l-5.2,13.9c-.6,1.5.2,3.2,1.7,3.8.3.1.7.2,1,.2,1.2,0,2.3-.7,2.7-1.9l4.9-13.1c3.3,1.5,7,2.4,10.8,2.6v9.5c0,1.6,1.3,2.9,2.9,2.9s2.9-1.3,2.9-2.9v-9.7c3.8-.5,7.3-1.6,10.5-3.2l5.2,13.9c.4,1.2,1.6,1.9,2.7,1.9s.7,0,1-.2c1.5-.6,2.3-2.2,1.7-3.8l-5.7-15.1Z"/><path class="cls-2" d="M78.5,20.1l-5.5-2.1c-.5-.2-.9-.6-1.1-1.1l-2.1-5.5c-.3-.8-1-1.2-1.7-1.2s-.9.2-1.3.5l-6.8,6.8c-.5.5-.7,1.3-.4,2l1.8,4.6-11.6,11.6c-.7-.3-1.5-.5-2.3-.5-3.4,0-6.2,2.8-6.2,6.2s2.8,6.2,6.2,6.2c3.4,0,6.2-2.8,6.2-6.2s-.2-1.6-.5-2.3l11.2-11.2,6,2.3c.2,0,.4.1.7.1.5,0,1-.2,1.3-.5l6.8-6.8c.9-.9.6-2.5-.6-3Z"/></g></g></g></svg>