<?xml version="1.0" encoding="UTF-8"?>
<svg xmlns="http://www.w3.org/2000/svg" xmlns:xlink="http://www.w3.org/1999/xlink" version="1.1" viewBox="0 0 100 100">
  <defs>
    <style>
      .cls-1 {
        fill: url(#Gradiente_sem_nome);
      }
    </style>
    <linearGradient id="Gradiente_sem_nome" data-name="Gradiente sem nome" x1="10.8" y1="51.2" x2="89" y2="51.2" gradientTransform="translate(0 101.3) scale(1 -1)" gradientUnits="userSpaceOnUse">
      <stop offset="0" stop-color="#4633fa"/>
      <stop offset="1" stop-color="#ff2c5e"/>
    </linearGradient>
  </defs>
  <!-- Generator: Adobe Illustrator 28.6.0, SVG Export Plug-In . SVG Version: 1.2.0 Build 709)  -->
  <g>
    <g id="Camada_1">
      <path class="cls-1" d="M20.6,20.7c0-2.7-2.2-4.9-4.9-4.9s-4.9,2.2-4.9,4.9v51.4c0,6.8,5.5,12.2,12.3,12.2h61.1c2.7,0,4.9-2.2,4.9-4.9s-2.2-4.9-4.9-4.9H23c-1.3,0-2.5-1.1-2.5-2.5V20.7h0ZM82.7,33.9c1.9-1.9,1.9-5,0-6.9s-5-1.9-6.9,0l-16.1,16.1-8.8-8.8c-1.9-1.9-5-1.9-6.9,0l-17.1,17.1c-1.9,1.9-1.9,5,0,6.9s5,1.9,6.9,0l13.7-13.6,8.8,8.8c1.9,1.9,5,1.9,6.9,0l19.5-19.5h0Z"/>
    </g>
  </g>
</svg>