<?xml version="1.0" encoding="UTF-8"?>
<svg xmlns="http://www.w3.org/2000/svg" xmlns:xlink="http://www.w3.org/1999/xlink" version="1.1" viewBox="0 0 100 100">
  <defs>
    <style>
      .cls-1 {
        fill: url(#Gradiente_sem_nome);
      }
    </style>
    <linearGradient id="Gradiente_sem_nome" data-name="Gradiente sem nome" x1="10.9" y1="51.3" x2="89" y2="51.3" gradientTransform="translate(0 101.3) scale(1 -1)" gradientUnits="userSpaceOnUse">
      <stop offset="0" stop-color="#4633fa"/>
      <stop offset="1" stop-color="#ff2c5e"/>
    </linearGradient>
  </defs>
  <!-- Generator: Adobe Illustrator 28.6.0, SVG Export Plug-In . SVG Version: 1.2.0 Build 709)  -->
  <g>
    <g id="Camada_1">
      <path class="cls-1" d="M79.2,15.8h-13.1l-.2.2-19.4,19.4h14.1l.2-.2,19.4-19.4h-1ZM89,35.4v-9.8c0-2.3-.8-4.5-2.1-6.1l-15.9,15.9h18ZM55.8,15.8h-14.1l-.2.2-19.4,19.4h14.1l.2-.2,19.4-19.4h0ZM20.7,15.8c-5.4,0-9.8,4.4-9.8,9.8v9.8h1l.2-.2L31.3,15.8h-10.7,0ZM89,40.2H10.9v34.2c0,5.4,4.4,9.8,9.8,9.8h58.6c5.4,0,9.8-4.4,9.8-9.8v-34.2h0Z"/>
    </g>
  </g>
</svg>