<?xml version="1.0" encoding="UTF-8"?>
<svg xmlns="http://www.w3.org/2000/svg" xmlns:xlink="http://www.w3.org/1999/xlink" version="1.1" viewBox="0 0 100 100">
  <defs>
    <style>
      .cls-1 {
        fill: url(#Gradiente_sem_nome);
      }

      .cls-2 {
        fill: url(#Gradiente_sem_nome-2);
      }
    </style>
    <linearGradient id="Gradiente_sem_nome" data-name="Gradiente sem nome" x1="46.7" y1="50" x2="89.2" y2="50" gradientUnits="userSpaceOnUse">
      <stop offset="0" stop-color="#4633fa"/>
      <stop offset="1" stop-color="#ff2c5e"/>
    </linearGradient>
    <linearGradient id="Gradiente_sem_nome-2" data-name="Gradiente sem nome" x1="10.3" y1="50.5" x2="40.2" y2="50.5" xlink:href="#Gradiente_sem_nome"/>
  </defs>
  <!-- Generator: Adobe Illustrator 28.6.0, SVG Export Plug-In . SVG Version: 1.2.0 Build 709)  -->
  <g>
    <g id="Camada_1">
      <g>
        <path class="cls-1" d="M49.7,10.5h-3v78.9h3c21.8,0,39.5-17.8,39.5-39.7S71.5,10.5,49.7,10.5ZM79.4,34.6h-10c-1.3-5.9-3.4-11-6-15,6.9,3.1,12.5,8.4,16,15ZM52.8,17.4c4.2,2,8.2,8.2,10.4,17.2h-10.4v-17.2ZM52.8,40.7h11.5c.4,2.9.6,5.9.6,9.1s-.2,6.2-.6,9.1h-11.5v-18.2ZM52.8,82.6v-17.6h10.4c-2.2,9.1-6.2,15.5-10.4,17.6ZM63.4,80.4c2.6-4.1,4.7-9.4,6-15.5h10.1c-3.5,6.8-9.2,12.3-16.1,15.5ZM70.4,58.9c.4-2.9.6-6,.6-9.1s-.2-6.2-.6-9.1h11.4c.8,2.9,1.3,5.9,1.3,9.1s-.4,6.2-1.3,9.1h-11.4Z"/>
        <path class="cls-2" d="M13.8,43c.3,0,.5.1.8.1,1.3,0,2.5-.9,2.9-2.2.3-1.3.8-2.5,1.3-3.7.6-1.6,0-3.3-1.6-4-1.5-.6-3.3.1-4,1.6-.6,1.4-1.1,2.9-1.5,4.4-.4,1.6.5,3.3,2.1,3.7ZM21.5,29.8c.9,0,1.7-.4,2.3-1.1.8-1,1.7-2,2.7-2.9,1.2-1.2,1.3-3.1.1-4.3-1.2-1.2-3.1-1.3-4.3-.1-1.1,1.1-2.2,2.2-3.2,3.4-1.1,1.3-.9,3.2.4,4.3.6.5,1.2.7,1.9.7ZM36,60.6l-18.3,6c-1.7.5-1.9,2.8-.4,3.7l4.5,2.7-10.4,10.4c-.8.8-.8,2.1,0,2.9l1.5,1.5c.8.8,2.1.8,2.9,0l10.5-10.5,2.6,4.5c.9,1.5,3.1,1.3,3.7-.4l6-18.2c.5-1.6-1-3.1-2.5-2.6ZM13.4,55.7c0,0,.2,0,.2,0,1.7-.1,2.9-1.6,2.8-3.3,0-.6,0-1.2,0-1.8,0-1.7-1.4-3-3.1-3-1.7,0-3,1.4-3,3.1,0,.7,0,1.5.1,2.2.1,1.6,1.5,2.8,3,2.8ZM40,14.7c-.6-1.6-2.3-2.4-3.9-1.8-1.5.5-2.9,1.1-4.3,1.8-1.5.8-2.1,2.6-1.3,4.1.5,1.1,1.6,1.7,2.7,1.7s.9-.1,1.4-.3c1.2-.6,2.4-1.1,3.6-1.6,1.6-.6,2.4-2.3,1.8-3.9Z"/>
      </g>
    </g>
  </g>
</svg>