<?xml version="1.0" encoding="UTF-8"?><svg xmlns="http://www.w3.org/2000/svg" xmlns:xlink="http://www.w3.org/1999/xlink" version="1.1" viewBox="0 0 100 100"><defs><style>.cls-1 {
        fill: url(#Gradiente_sem_nome);
      }</style><linearGradient id="Gradiente_sem_nome" data-name="Gradiente sem nome" x1="10.9" y1="51.2" x2="88.9" y2="51.2" gradientTransform="translate(0 101.3) scale(1 -1)" gradientUnits="userSpaceOnUse"><stop offset="0" stop-color="#4633fa"/><stop offset="1" stop-color="#ff2c5e"/></linearGradient></defs><!--Generator: Adobe Illustrator 28.6.0, SVG Export Plug-In . SVG Version: 1.2.0 Build 709)--><g><g id="Camada_1"><path class="cls-1" d="M87.2,28.2l-8.2-13c-.8-1.1-2.1-1.9-3.4-1.9H24.3c-1.4,0-2.7.8-3.4,1.9l-8.2,13c-4.3,6.7-.5,16,7.5,17.2.6,0,1.1,0,1.7,0,3.8,0,7.1-1.6,9.4-4.2,2.3,2.6,5.6,4.2,9.4,4.2s7.1-1.6,9.4-4.2c2.3,2.6,5.6,4.2,9.4,4.2s7.1-1.6,9.4-4.2c2.3,2.6,5.6,4.2,9.4,4.2s1.1,0,1.7,0c8-1,11.8-10.4,7.5-17.2h-.2ZM80.2,49.8h0c-.8,0-1.5.2-2.3.2-1.8,0-3.5-.3-5-.8v19.1H27v-19.1c-1.6.5-3.3.8-5.1.8s-1.6,0-2.4-.2h0c-.6,0-1.1-.2-1.7-.3v28.1c0,5,4.1,9.2,9.2,9.2h45.9c5,0,9.2-4.1,9.2-9.2v-28.1c-.6.2-1.1.3-1.8.3h0Z"/></g></g></svg>