<?xml version="1.0" encoding="UTF-8"?>
<svg xmlns="http://www.w3.org/2000/svg" xmlns:xlink="http://www.w3.org/1999/xlink" version="1.1" viewBox="0 0 1920 1080">
  <defs>
    <style>
      .cls-1 {
        stroke: url(#Gradiente_sem_nome_156-8);
      }

      .cls-1, .cls-2, .cls-3, .cls-4, .cls-5, .cls-6, .cls-7, .cls-8, .cls-9, .cls-10, .cls-11, .cls-12, .cls-13, .cls-14, .cls-15, .cls-16, .cls-17, .cls-18, .cls-19, .cls-20, .cls-21, .cls-22, .cls-23, .cls-24, .cls-25, .cls-26, .cls-27, .cls-28, .cls-29, .cls-30, .cls-31, .cls-32, .cls-33, .cls-34, .cls-35, .cls-36, .cls-37, .cls-38, .cls-39, .cls-40, .cls-41, .cls-42, .cls-43, .cls-44, .cls-45, .cls-46, .cls-47, .cls-48, .cls-49, .cls-50, .cls-51, .cls-52, .cls-53, .cls-54, .cls-55, .cls-56, .cls-57, .cls-58, .cls-59, .cls-60, .cls-61, .cls-62, .cls-63, .cls-64, .cls-65, .cls-66, .cls-67, .cls-68, .cls-69, .cls-70, .cls-71, .cls-72, .cls-73, .cls-74, .cls-75, .cls-76, .cls-77, .cls-78, .cls-79, .cls-80, .cls-81, .cls-82, .cls-83, .cls-84, .cls-85, .cls-86, .cls-87, .cls-88, .cls-89, .cls-90, .cls-91, .cls-92, .cls-93, .cls-94, .cls-95 {
        fill: none;
        stroke-miterlimit: 10;
      }

      .cls-2 {
        stroke: url(#Gradiente_sem_nome_156-7);
      }

      .cls-3 {
        stroke: url(#Gradiente_sem_nome_156-6);
      }

      .cls-4 {
        stroke: url(#Gradiente_sem_nome_156-5);
      }

      .cls-5 {
        stroke: url(#Gradiente_sem_nome_156-4);
      }

      .cls-6 {
        stroke: url(#Gradiente_sem_nome_156-3);
      }

      .cls-7 {
        stroke: url(#Gradiente_sem_nome_156-2);
      }

      .cls-8 {
        stroke: url(#Gradiente_sem_nome_156-9);
      }

      .cls-9 {
        stroke: url(#Gradiente_sem_nome_156-88);
      }

      .cls-10 {
        stroke: url(#Gradiente_sem_nome_156-53);
      }

      .cls-11 {
        stroke: url(#Gradiente_sem_nome_156-79);
      }

      .cls-12 {
        stroke: url(#Gradiente_sem_nome_156-58);
      }

      .cls-13 {
        stroke: url(#Gradiente_sem_nome_156-93);
      }

      .cls-14 {
        stroke: url(#Gradiente_sem_nome_156-94);
      }

      .cls-15 {
        stroke: url(#Gradiente_sem_nome_156-90);
      }

      .cls-16 {
        stroke: url(#Gradiente_sem_nome_156-91);
      }

      .cls-17 {
        stroke: url(#Gradiente_sem_nome_156-54);
      }

      .cls-18 {
        stroke: url(#Gradiente_sem_nome_156-89);
      }

      .cls-19 {
        stroke: url(#Gradiente_sem_nome_156-55);
      }

      .cls-20 {
        stroke: url(#Gradiente_sem_nome_156-59);
      }

      .cls-21 {
        stroke: url(#Gradiente_sem_nome_156-57);
      }

      .cls-22 {
        stroke: url(#Gradiente_sem_nome_156-50);
      }

      .cls-23 {
        stroke: url(#Gradiente_sem_nome_156-31);
      }

      .cls-24 {
        stroke: url(#Gradiente_sem_nome_156-30);
      }

      .cls-25 {
        stroke: url(#Gradiente_sem_nome_156-35);
      }

      .cls-26 {
        stroke: url(#Gradiente_sem_nome_156-34);
      }

      .cls-27 {
        stroke: url(#Gradiente_sem_nome_156-56);
      }

      .cls-28 {
        stroke: url(#Gradiente_sem_nome_156-61);
      }

      .cls-29 {
        stroke: url(#Gradiente_sem_nome_156-63);
      }

      .cls-30 {
        stroke: url(#Gradiente_sem_nome_156-62);
      }

      .cls-31 {
        stroke: url(#Gradiente_sem_nome_156-60);
      }

      .cls-32 {
        stroke: url(#Gradiente_sem_nome_156-33);
      }

      .cls-33 {
        stroke: url(#Gradiente_sem_nome_156-37);
      }

      .cls-34 {
        stroke: url(#Gradiente_sem_nome_156-38);
      }

      .cls-35 {
        stroke: url(#Gradiente_sem_nome_156-39);
      }

      .cls-36 {
        stroke: url(#Gradiente_sem_nome_156-32);
      }

      .cls-37 {
        stroke: url(#Gradiente_sem_nome_156-36);
      }

      .cls-38 {
        stroke: url(#Gradiente_sem_nome_156-65);
      }

      .cls-39 {
        stroke: url(#Gradiente_sem_nome_156-67);
      }

      .cls-40 {
        stroke: url(#Gradiente_sem_nome_156-66);
      }

      .cls-41 {
        stroke: url(#Gradiente_sem_nome_156-64);
      }

      .cls-42 {
        stroke: url(#Gradiente_sem_nome_156-69);
      }

      .cls-43 {
        stroke: url(#Gradiente_sem_nome_156-68);
      }

      .cls-44 {
        stroke: url(#Gradiente_sem_nome_156-95);
      }

      .cls-45 {
        stroke: url(#Gradiente_sem_nome_156-92);
      }

      .cls-46 {
        stroke: url(#Gradiente_sem_nome_156-74);
      }

      .cls-47 {
        stroke: url(#Gradiente_sem_nome_156-72);
      }

      .cls-48 {
        stroke: url(#Gradiente_sem_nome_156-75);
      }

      .cls-49 {
        stroke: url(#Gradiente_sem_nome_156-71);
      }

      .cls-50 {
        stroke: url(#Gradiente_sem_nome_156-73);
      }

      .cls-51 {
        stroke: url(#Gradiente_sem_nome_156-78);
      }

      .cls-52 {
        stroke: url(#Gradiente_sem_nome_156-77);
      }

      .cls-53 {
        stroke: url(#Gradiente_sem_nome_156-76);
      }

      .cls-54 {
        stroke: url(#Gradiente_sem_nome_156-80);
      }

      .cls-55 {
        stroke: url(#Gradiente_sem_nome_156-52);
      }

      .cls-56 {
        stroke: url(#Gradiente_sem_nome_156-51);
      }

      .cls-57 {
        stroke: url(#Gradiente_sem_nome_156-70);
      }

      .cls-58 {
        stroke: url(#Gradiente_sem_nome_156-86);
      }

      .cls-59 {
        stroke: url(#Gradiente_sem_nome_156-85);
      }

      .cls-60 {
        stroke: url(#Gradiente_sem_nome_156-87);
      }

      .cls-61 {
        stroke: url(#Gradiente_sem_nome_156-83);
      }

      .cls-62 {
        stroke: url(#Gradiente_sem_nome_156-84);
      }

      .cls-63 {
        stroke: url(#Gradiente_sem_nome_156-82);
      }

      .cls-64 {
        stroke: url(#Gradiente_sem_nome_156-81);
      }

      .cls-65 {
        stroke: url(#Gradiente_sem_nome_156-44);
      }

      .cls-66 {
        stroke: url(#Gradiente_sem_nome_156-43);
      }

      .cls-67 {
        stroke: url(#Gradiente_sem_nome_156-47);
      }

      .cls-68 {
        stroke: url(#Gradiente_sem_nome_156-49);
      }

      .cls-69 {
        stroke: url(#Gradiente_sem_nome_156-42);
      }

      .cls-70 {
        stroke: url(#Gradiente_sem_nome_156-46);
      }

      .cls-71 {
        stroke: url(#Gradiente_sem_nome_156-48);
      }

      .cls-72 {
        stroke: url(#Gradiente_sem_nome_156-40);
      }

      .cls-73 {
        stroke: url(#Gradiente_sem_nome_156-45);
      }

      .cls-74 {
        stroke: url(#Gradiente_sem_nome_156-41);
      }

      .cls-75 {
        stroke: url(#Gradiente_sem_nome_156-12);
      }

      .cls-76 {
        stroke: url(#Gradiente_sem_nome_156-18);
      }

      .cls-77 {
        stroke: url(#Gradiente_sem_nome_156-29);
      }

      .cls-78 {
        stroke: url(#Gradiente_sem_nome_156-28);
      }

      .cls-79 {
        stroke: url(#Gradiente_sem_nome_156-24);
      }

      .cls-80 {
        stroke: url(#Gradiente_sem_nome_156-26);
      }

      .cls-81 {
        stroke: url(#Gradiente_sem_nome_156-10);
      }

      .cls-82 {
        stroke: url(#Gradiente_sem_nome_156-19);
      }

      .cls-83 {
        stroke: url(#Gradiente_sem_nome_156-11);
      }

      .cls-84 {
        stroke: url(#Gradiente_sem_nome_156-14);
      }

      .cls-85 {
        stroke: url(#Gradiente_sem_nome_156-27);
      }

      .cls-86 {
        stroke: url(#Gradiente_sem_nome_156-25);
      }

      .cls-87 {
        stroke: url(#Gradiente_sem_nome_156-22);
      }

      .cls-88 {
        stroke: url(#Gradiente_sem_nome_156-21);
      }

      .cls-89 {
        stroke: url(#Gradiente_sem_nome_156-20);
      }

      .cls-90 {
        stroke: url(#Gradiente_sem_nome_156-23);
      }

      .cls-91 {
        stroke: url(#Gradiente_sem_nome_156-16);
      }

      .cls-92 {
        stroke: url(#Gradiente_sem_nome_156-17);
      }

      .cls-93 {
        stroke: url(#Gradiente_sem_nome_156-15);
      }

      .cls-94 {
        stroke: url(#Gradiente_sem_nome_156-13);
      }

      .cls-96 {
        opacity: .3;
      }

      .cls-95 {
        stroke: url(#Gradiente_sem_nome_156);
      }
    </style>
    <linearGradient id="Gradiente_sem_nome_156" data-name="Gradiente sem nome 156" x1="-61.9" y1="-11.8" x2="696.8" y2="-11.8" gradientTransform="translate(0 1079.3) scale(1 -1)" gradientUnits="userSpaceOnUse">
      <stop offset="0" stop-color="#e7215e" stop-opacity=".1"/>
      <stop offset="0" stop-color="#e02164" stop-opacity=".3"/>
      <stop offset="0" stop-color="#d6226e" stop-opacity=".5"/>
      <stop offset=".1" stop-color="#ce2376" stop-opacity=".7"/>
      <stop offset=".2" stop-color="#c8247c" stop-opacity=".8"/>
      <stop offset=".3" stop-color="#c42480" stop-opacity=".9"/>
      <stop offset=".3" stop-color="#c12483" stop-opacity="1"/>
      <stop offset=".4" stop-color="#c12584"/>
      <stop offset=".6" stop-color="#4932fa"/>
      <stop offset=".7" stop-color="#4932fa" stop-opacity=".9"/>
      <stop offset=".7" stop-color="#4932fa" stop-opacity=".8"/>
      <stop offset=".8" stop-color="#4932fa" stop-opacity=".6"/>
      <stop offset="1" stop-color="#4932fa" stop-opacity=".3"/>
      <stop offset="1" stop-color="#4932fa" stop-opacity=".2"/>
    </linearGradient>
    <linearGradient id="Gradiente_sem_nome_156-2" data-name="Gradiente sem nome 156" x1="-61.8" y1="-5.1" x2="750" y2="-5.1" xlink:href="#Gradiente_sem_nome_156"/>
    <linearGradient id="Gradiente_sem_nome_156-3" data-name="Gradiente sem nome 156" x1="-61.8" y1="1.8" x2="797.8" y2="1.8" xlink:href="#Gradiente_sem_nome_156"/>
    <linearGradient id="Gradiente_sem_nome_156-4" data-name="Gradiente sem nome 156" x1="-61.8" y1="8.7" x2="841.6" y2="8.7" xlink:href="#Gradiente_sem_nome_156"/>
    <linearGradient id="Gradiente_sem_nome_156-5" data-name="Gradiente sem nome 156" x1="-61.8" y1="15.5" x2="882.2" y2="15.5" xlink:href="#Gradiente_sem_nome_156"/>
    <linearGradient id="Gradiente_sem_nome_156-6" data-name="Gradiente sem nome 156" x1="-61.7" y1="22.1" x2="920.5" y2="22.1" xlink:href="#Gradiente_sem_nome_156"/>
    <linearGradient id="Gradiente_sem_nome_156-7" data-name="Gradiente sem nome 156" x1="-61.9" y1="28.9" x2="956.4" y2="28.9" xlink:href="#Gradiente_sem_nome_156"/>
    <linearGradient id="Gradiente_sem_nome_156-8" data-name="Gradiente sem nome 156" x1="-61.9" y1="35.5" x2="990.3" y2="35.5" xlink:href="#Gradiente_sem_nome_156"/>
    <linearGradient id="Gradiente_sem_nome_156-9" data-name="Gradiente sem nome 156" x1="-61.9" y1="42.1" x2="1023" y2="42.1" xlink:href="#Gradiente_sem_nome_156"/>
    <linearGradient id="Gradiente_sem_nome_156-10" data-name="Gradiente sem nome 156" x1="-61.9" y1="48.8" x2="1054.1" y2="48.8" xlink:href="#Gradiente_sem_nome_156"/>
    <linearGradient id="Gradiente_sem_nome_156-11" data-name="Gradiente sem nome 156" x1="-61.7" y1="55.5" x2="1084.6" y2="55.5" xlink:href="#Gradiente_sem_nome_156"/>
    <linearGradient id="Gradiente_sem_nome_156-12" data-name="Gradiente sem nome 156" x1="-61.9" y1="62.1" x2="1113.6" y2="62.1" xlink:href="#Gradiente_sem_nome_156"/>
    <linearGradient id="Gradiente_sem_nome_156-13" data-name="Gradiente sem nome 156" x1="-61.8" y1="68.7" x2="1142.3" y2="68.7" xlink:href="#Gradiente_sem_nome_156"/>
    <linearGradient id="Gradiente_sem_nome_156-14" data-name="Gradiente sem nome 156" x1="-61.8" y1="75.3" x2="1169.7" y2="75.3" xlink:href="#Gradiente_sem_nome_156"/>
    <linearGradient id="Gradiente_sem_nome_156-15" data-name="Gradiente sem nome 156" x1="-61.8" y1="81.8" x2="1197.3" y2="81.8" xlink:href="#Gradiente_sem_nome_156"/>
    <linearGradient id="Gradiente_sem_nome_156-16" data-name="Gradiente sem nome 156" x1="-61.8" y1="88.5" x2="1223.9" y2="88.5" xlink:href="#Gradiente_sem_nome_156"/>
    <linearGradient id="Gradiente_sem_nome_156-17" data-name="Gradiente sem nome 156" x1="-61.8" y1="95.1" x2="1250.6" y2="95.1" xlink:href="#Gradiente_sem_nome_156"/>
    <linearGradient id="Gradiente_sem_nome_156-18" data-name="Gradiente sem nome 156" x1="-61.7" y1="101.7" x2="1276.8" y2="101.7" xlink:href="#Gradiente_sem_nome_156"/>
    <linearGradient id="Gradiente_sem_nome_156-19" data-name="Gradiente sem nome 156" x1="-61.8" y1="108.4" x2="1303" y2="108.4" xlink:href="#Gradiente_sem_nome_156"/>
    <linearGradient id="Gradiente_sem_nome_156-20" data-name="Gradiente sem nome 156" x1="-61.8" y1="115" x2="1328.9" y2="115" xlink:href="#Gradiente_sem_nome_156"/>
    <linearGradient id="Gradiente_sem_nome_156-21" data-name="Gradiente sem nome 156" x1="-62" y1="121.9" x2="1355.1" y2="121.9" xlink:href="#Gradiente_sem_nome_156"/>
    <linearGradient id="Gradiente_sem_nome_156-22" data-name="Gradiente sem nome 156" x1="-61.7" y1="128.6" x2="1381.5" y2="128.6" xlink:href="#Gradiente_sem_nome_156"/>
    <linearGradient id="Gradiente_sem_nome_156-23" data-name="Gradiente sem nome 156" x1="-61.8" y1="135.1" x2="1408.1" y2="135.1" xlink:href="#Gradiente_sem_nome_156"/>
    <linearGradient id="Gradiente_sem_nome_156-24" data-name="Gradiente sem nome 156" x1="-61.8" y1="142.1" x2="1435.2" y2="142.1" xlink:href="#Gradiente_sem_nome_156"/>
    <linearGradient id="Gradiente_sem_nome_156-25" data-name="Gradiente sem nome 156" x1="-61.9" y1="148.8" x2="1462.7" y2="148.8" xlink:href="#Gradiente_sem_nome_156"/>
    <linearGradient id="Gradiente_sem_nome_156-26" data-name="Gradiente sem nome 156" x1="-61.9" y1="155.5" x2="1491.2" y2="155.5" xlink:href="#Gradiente_sem_nome_156"/>
    <linearGradient id="Gradiente_sem_nome_156-27" data-name="Gradiente sem nome 156" x1="-61.7" y1="162.5" x2="1520.7" y2="162.5" xlink:href="#Gradiente_sem_nome_156"/>
    <linearGradient id="Gradiente_sem_nome_156-28" data-name="Gradiente sem nome 156" y1="169.4" x2="1551.5" y2="169.4" xlink:href="#Gradiente_sem_nome_156"/>
    <linearGradient id="Gradiente_sem_nome_156-29" data-name="Gradiente sem nome 156" x1="-61.6" y1="176.4" x2="1584.1" y2="176.4" xlink:href="#Gradiente_sem_nome_156"/>
    <linearGradient id="Gradiente_sem_nome_156-30" data-name="Gradiente sem nome 156" x1="-61.8" y1="183.7" x2="1618.8" y2="183.7" xlink:href="#Gradiente_sem_nome_156"/>
    <linearGradient id="Gradiente_sem_nome_156-31" data-name="Gradiente sem nome 156" x1="-61.7" y1="190.5" x2="1657.4" y2="190.5" xlink:href="#Gradiente_sem_nome_156"/>
    <linearGradient id="Gradiente_sem_nome_156-32" data-name="Gradiente sem nome 156" x1="-61.8" y1="197.7" x2="1703.2" y2="197.7" xlink:href="#Gradiente_sem_nome_156"/>
    <linearGradient id="Gradiente_sem_nome_156-33" data-name="Gradiente sem nome 156" x1="-61.9" y1="204.8" x2="1757.5" y2="204.8" xlink:href="#Gradiente_sem_nome_156"/>
    <linearGradient id="Gradiente_sem_nome_156-34" data-name="Gradiente sem nome 156" x1="-62" y1="212.2" x2="1886.9" y2="212.2" xlink:href="#Gradiente_sem_nome_156"/>
    <linearGradient id="Gradiente_sem_nome_156-35" data-name="Gradiente sem nome 156" x1="-61.6" y1="226.3" x2="1934.5" y2="226.3" xlink:href="#Gradiente_sem_nome_156"/>
    <linearGradient id="Gradiente_sem_nome_156-36" data-name="Gradiente sem nome 156" x1="-62" y1="240.6" x2="1934.4" y2="240.6" xlink:href="#Gradiente_sem_nome_156"/>
    <linearGradient id="Gradiente_sem_nome_156-37" data-name="Gradiente sem nome 156" x1="-61.9" y1="254.7" x2="1934.3" y2="254.7" xlink:href="#Gradiente_sem_nome_156"/>
    <linearGradient id="Gradiente_sem_nome_156-38" data-name="Gradiente sem nome 156" x1="-61.7" y1="268.9" x2="1934.5" y2="268.9" xlink:href="#Gradiente_sem_nome_156"/>
    <linearGradient id="Gradiente_sem_nome_156-39" data-name="Gradiente sem nome 156" x1="-62" y1="282.8" x2="1934.3" y2="282.8" xlink:href="#Gradiente_sem_nome_156"/>
    <linearGradient id="Gradiente_sem_nome_156-40" data-name="Gradiente sem nome 156" x1="-61.9" y1="296.5" x2="1934.3" y2="296.5" xlink:href="#Gradiente_sem_nome_156"/>
    <linearGradient id="Gradiente_sem_nome_156-41" data-name="Gradiente sem nome 156" x1="-61.6" y1="310.3" x2="1934.7" y2="310.3" xlink:href="#Gradiente_sem_nome_156"/>
    <linearGradient id="Gradiente_sem_nome_156-42" data-name="Gradiente sem nome 156" x1="-61.8" y1="323.6" x2="1934.5" y2="323.6" xlink:href="#Gradiente_sem_nome_156"/>
    <linearGradient id="Gradiente_sem_nome_156-43" data-name="Gradiente sem nome 156" x1="-61.8" y1="337.1" x2="1934.3" y2="337.1" xlink:href="#Gradiente_sem_nome_156"/>
    <linearGradient id="Gradiente_sem_nome_156-44" data-name="Gradiente sem nome 156" x1="-61.8" y1="350.5" x2="1934.4" y2="350.5" xlink:href="#Gradiente_sem_nome_156"/>
    <linearGradient id="Gradiente_sem_nome_156-45" data-name="Gradiente sem nome 156" x1="-61.7" y1="363.7" x2="1934.6" y2="363.7" xlink:href="#Gradiente_sem_nome_156"/>
    <linearGradient id="Gradiente_sem_nome_156-46" data-name="Gradiente sem nome 156" x1="-61.7" y1="377" x2="1934.5" y2="377" xlink:href="#Gradiente_sem_nome_156"/>
    <linearGradient id="Gradiente_sem_nome_156-47" data-name="Gradiente sem nome 156" x1="-61.8" y1="390.2" x2="1934.5" y2="390.2" xlink:href="#Gradiente_sem_nome_156"/>
    <linearGradient id="Gradiente_sem_nome_156-48" data-name="Gradiente sem nome 156" x1="-61.8" y1="403.4" x2="1934.4" y2="403.4" xlink:href="#Gradiente_sem_nome_156"/>
    <linearGradient id="Gradiente_sem_nome_156-49" data-name="Gradiente sem nome 156" x1="-61.9" y1="416.3" x2="1934.4" y2="416.3" xlink:href="#Gradiente_sem_nome_156"/>
    <linearGradient id="Gradiente_sem_nome_156-50" data-name="Gradiente sem nome 156" x1="-61.8" y1="429.2" x2="1934.5" y2="429.2" xlink:href="#Gradiente_sem_nome_156"/>
    <linearGradient id="Gradiente_sem_nome_156-51" data-name="Gradiente sem nome 156" x1="-61.7" y1="442.3" x2="1934.5" y2="442.3" xlink:href="#Gradiente_sem_nome_156"/>
    <linearGradient id="Gradiente_sem_nome_156-52" data-name="Gradiente sem nome 156" x1="-61.8" y1="455.1" x2="1934.4" y2="455.1" xlink:href="#Gradiente_sem_nome_156"/>
    <linearGradient id="Gradiente_sem_nome_156-53" data-name="Gradiente sem nome 156" x1="-61.8" y1="468.2" x2="1934.5" y2="468.2" xlink:href="#Gradiente_sem_nome_156"/>
    <linearGradient id="Gradiente_sem_nome_156-54" data-name="Gradiente sem nome 156" x1="-62" y1="481.1" x2="1934.3" y2="481.1" xlink:href="#Gradiente_sem_nome_156"/>
    <linearGradient id="Gradiente_sem_nome_156-55" data-name="Gradiente sem nome 156" x1="-61.7" y1="494.2" x2="1934.5" y2="494.2" xlink:href="#Gradiente_sem_nome_156"/>
    <linearGradient id="Gradiente_sem_nome_156-56" data-name="Gradiente sem nome 156" x1="-61.8" y1="509" x2="1934.4" y2="509" xlink:href="#Gradiente_sem_nome_156"/>
    <linearGradient id="Gradiente_sem_nome_156-57" data-name="Gradiente sem nome 156" x1="-62" y1="523.6" x2="1934.3" y2="523.6" xlink:href="#Gradiente_sem_nome_156"/>
    <linearGradient id="Gradiente_sem_nome_156-58" data-name="Gradiente sem nome 156" x1="-61.9" y1="537.8" x2="1934.4" y2="537.8" xlink:href="#Gradiente_sem_nome_156"/>
    <linearGradient id="Gradiente_sem_nome_156-59" data-name="Gradiente sem nome 156" x1="-61.9" y1="553.8" x2="1934.4" y2="553.8" xlink:href="#Gradiente_sem_nome_156"/>
    <linearGradient id="Gradiente_sem_nome_156-60" data-name="Gradiente sem nome 156" x1="-61.8" y1="580.8" x2="1934.4" y2="580.8" xlink:href="#Gradiente_sem_nome_156"/>
    <linearGradient id="Gradiente_sem_nome_156-61" data-name="Gradiente sem nome 156" x1="-61.9" y1="606.3" x2="1934.4" y2="606.3" xlink:href="#Gradiente_sem_nome_156"/>
    <linearGradient id="Gradiente_sem_nome_156-62" data-name="Gradiente sem nome 156" x1="-61.8" y1="630.6" x2="1934.4" y2="630.6" xlink:href="#Gradiente_sem_nome_156"/>
    <linearGradient id="Gradiente_sem_nome_156-63" data-name="Gradiente sem nome 156" x1="-61.7" y1="653.5" x2="1934.5" y2="653.5" xlink:href="#Gradiente_sem_nome_156"/>
    <linearGradient id="Gradiente_sem_nome_156-64" data-name="Gradiente sem nome 156" x1="-62.1" y1="675.5" x2="1934.3" y2="675.5" xlink:href="#Gradiente_sem_nome_156"/>
    <linearGradient id="Gradiente_sem_nome_156-65" data-name="Gradiente sem nome 156" x1="-61.7" y1="696.3" x2="1934.4" y2="696.3" xlink:href="#Gradiente_sem_nome_156"/>
    <linearGradient id="Gradiente_sem_nome_156-66" data-name="Gradiente sem nome 156" x1="-61.8" y1="716.1" x2="1934.4" y2="716.1" xlink:href="#Gradiente_sem_nome_156"/>
    <linearGradient id="Gradiente_sem_nome_156-67" data-name="Gradiente sem nome 156" x1="-61.8" y1="735.3" x2="1934.4" y2="735.3" xlink:href="#Gradiente_sem_nome_156"/>
    <linearGradient id="Gradiente_sem_nome_156-68" data-name="Gradiente sem nome 156" x1="-61.9" y1="753.7" x2="1934.4" y2="753.7" xlink:href="#Gradiente_sem_nome_156"/>
    <linearGradient id="Gradiente_sem_nome_156-69" data-name="Gradiente sem nome 156" x1="-61.9" y1="771.2" x2="1934.4" y2="771.2" xlink:href="#Gradiente_sem_nome_156"/>
    <linearGradient id="Gradiente_sem_nome_156-70" data-name="Gradiente sem nome 156" x1="-61.8" y1="788.2" x2="1934.4" y2="788.2" xlink:href="#Gradiente_sem_nome_156"/>
    <linearGradient id="Gradiente_sem_nome_156-71" data-name="Gradiente sem nome 156" x1="-61.9" y1="804.6" x2="1934.3" y2="804.6" xlink:href="#Gradiente_sem_nome_156"/>
    <linearGradient id="Gradiente_sem_nome_156-72" data-name="Gradiente sem nome 156" x1="-61.7" y1="820.4" x2="1934.4" y2="820.4" xlink:href="#Gradiente_sem_nome_156"/>
    <linearGradient id="Gradiente_sem_nome_156-73" data-name="Gradiente sem nome 156" x1="-61.7" y1="835.6" x2="1934.5" y2="835.6" xlink:href="#Gradiente_sem_nome_156"/>
    <linearGradient id="Gradiente_sem_nome_156-74" data-name="Gradiente sem nome 156" x1="-62" y1="850.2" x2="1934.4" y2="850.2" xlink:href="#Gradiente_sem_nome_156"/>
    <linearGradient id="Gradiente_sem_nome_156-75" data-name="Gradiente sem nome 156" x1="-61.9" y1="864.7" x2="1934.4" y2="864.7" xlink:href="#Gradiente_sem_nome_156"/>
    <linearGradient id="Gradiente_sem_nome_156-76" data-name="Gradiente sem nome 156" x1="-61.7" y1="878.9" x2="1934.5" y2="878.9" xlink:href="#Gradiente_sem_nome_156"/>
    <linearGradient id="Gradiente_sem_nome_156-77" data-name="Gradiente sem nome 156" x1="-61.9" y1="893" x2="1934.5" y2="893" xlink:href="#Gradiente_sem_nome_156"/>
    <linearGradient id="Gradiente_sem_nome_156-78" data-name="Gradiente sem nome 156" x1="-61.9" y1="906.8" x2="1934.4" y2="906.8" xlink:href="#Gradiente_sem_nome_156"/>
    <linearGradient id="Gradiente_sem_nome_156-79" data-name="Gradiente sem nome 156" x1="-61.8" y1="920" x2="1934.4" y2="920" xlink:href="#Gradiente_sem_nome_156"/>
    <linearGradient id="Gradiente_sem_nome_156-80" data-name="Gradiente sem nome 156" x1="-61.8" y1="933.3" x2="1934.4" y2="933.3" xlink:href="#Gradiente_sem_nome_156"/>
    <linearGradient id="Gradiente_sem_nome_156-81" data-name="Gradiente sem nome 156" x1="-61.6" y1="946" x2="1934.5" y2="946" xlink:href="#Gradiente_sem_nome_156"/>
    <linearGradient id="Gradiente_sem_nome_156-82" data-name="Gradiente sem nome 156" x1="-61.9" y1="958.3" x2="1934.5" y2="958.3" xlink:href="#Gradiente_sem_nome_156"/>
    <linearGradient id="Gradiente_sem_nome_156-83" data-name="Gradiente sem nome 156" x1="-61.7" y1="970.3" x2="1934.6" y2="970.3" xlink:href="#Gradiente_sem_nome_156"/>
    <linearGradient id="Gradiente_sem_nome_156-84" data-name="Gradiente sem nome 156" x1="-61.7" y1="982" x2="1934.5" y2="982" xlink:href="#Gradiente_sem_nome_156"/>
    <linearGradient id="Gradiente_sem_nome_156-85" data-name="Gradiente sem nome 156" x1="-61.8" y1="993.9" x2="1934.4" y2="993.9" xlink:href="#Gradiente_sem_nome_156"/>
    <linearGradient id="Gradiente_sem_nome_156-86" data-name="Gradiente sem nome 156" x1="-61.6" y1="1004.8" x2="1934.5" y2="1004.8" xlink:href="#Gradiente_sem_nome_156"/>
    <linearGradient id="Gradiente_sem_nome_156-87" data-name="Gradiente sem nome 156" x1="-61.8" y1="1016" x2="1934.3" y2="1016" xlink:href="#Gradiente_sem_nome_156"/>
    <linearGradient id="Gradiente_sem_nome_156-88" data-name="Gradiente sem nome 156" x1="-62" y1="1027.3" x2="1934.4" y2="1027.3" xlink:href="#Gradiente_sem_nome_156"/>
    <linearGradient id="Gradiente_sem_nome_156-89" data-name="Gradiente sem nome 156" x1="-61.7" y1="1038.6" x2="1934.4" y2="1038.6" xlink:href="#Gradiente_sem_nome_156"/>
    <linearGradient id="Gradiente_sem_nome_156-90" data-name="Gradiente sem nome 156" x1="-62" y1="1049.9" x2="1934.4" y2="1049.9" xlink:href="#Gradiente_sem_nome_156"/>
    <linearGradient id="Gradiente_sem_nome_156-91" data-name="Gradiente sem nome 156" x1="-61.8" y1="1061.9" x2="1934.4" y2="1061.9" xlink:href="#Gradiente_sem_nome_156"/>
    <linearGradient id="Gradiente_sem_nome_156-92" data-name="Gradiente sem nome 156" x1="-61.8" y1="1070.5" x2="1932.3" y2="1070.5" xlink:href="#Gradiente_sem_nome_156"/>
    <linearGradient id="Gradiente_sem_nome_156-93" data-name="Gradiente sem nome 156" x1="-61.8" y1="1075.1" x2="1905.6" y2="1075.1" xlink:href="#Gradiente_sem_nome_156"/>
    <linearGradient id="Gradiente_sem_nome_156-94" data-name="Gradiente sem nome 156" x1="-61.9" y1="1079.8" x2="1875.1" y2="1079.8" xlink:href="#Gradiente_sem_nome_156"/>
    <linearGradient id="Gradiente_sem_nome_156-95" data-name="Gradiente sem nome 156" x1="-61.9" y1="1084.5" x2="1831.3" y2="1084.5" xlink:href="#Gradiente_sem_nome_156"/>
  </defs>
  <!-- Generator: Adobe Illustrator 28.7.1, SVG Export Plug-In . SVG Version: 1.2.0 Build 142)  -->
  <g>
    <g id="Camada_1">
      <g id="Camada_1-2" data-name="Camada_1">
        <g class="cls-96">
          <path class="cls-95" d="M-41,1109.7c127.5-27.2,244.1-40.9,356.5-41.9,107.2-1,220.4,12.4,346.2,40.8,9.4,2.1,18.8,4.3,28.2,6.5h2.6c-10.1-2.4-20.3-4.8-30.5-7.1-60.3-13.6-115.9-23.5-170.1-30.3-57.2-7.1-111.4-10.6-165.3-10.6h-11.2c-112.5,1-229.2,14.7-356.8,42-6.7,1.4-13.4,2.9-20,4.4v.6c6.8-1.5,13.6-3,20.4-4.4h0Z"/>
          <path class="cls-7" d="M322.9,1054c106.3-.9,215.1,12.4,342.4,41.8,26.3,6.1,52.4,12.6,78.4,19.4h2.4c-26.6-7-53.4-13.7-80.4-19.9-59.9-13.8-114.8-23.9-168-30.8-57.2-7.4-111.1-11-164.5-11h-10.3c-115.6,1-233.7,14.9-361.1,42.6-7.7,1.7-15.4,3.4-23.1,5.1v.6c7.8-1.8,15.6-3.5,23.4-5.2,127.3-27.7,245.3-41.6,360.8-42.6h0Z"/>
          <path class="cls-6" d="M322.9,1040.4c107.7-1.1,217.5,12.4,345.4,42.6,41.7,9.8,82.9,20.7,123.6,32.2h2.3c-41.3-11.7-83.2-22.7-125.5-32.7-60.3-14.2-115.7-24.5-169.4-31.6-57-7.5-110.9-11.1-164.4-11.1h-12c-112.3,1.1-226.5,14.7-349.3,41.5-11.7,2.5-23.3,5.2-34.9,7.9v.6c11.7-2.7,23.5-5.4,35.3-7.9,122.6-26.7,236.8-40.3,348.9-41.4h0Z"/>
          <path class="cls-5" d="M328.8,1026.7c107.4-1.1,218.1,13.2,348.4,44.9,53.7,13.1,106.7,27.9,158.8,43.5h2.2c-52.7-15.7-106.2-30.8-160.6-44-125.9-30.7-233.6-45-337.7-45h-11.1c-112.8,1.1-226.7,14.7-348.3,41.6-14,3.1-27.9,6.3-41.8,9.6v.6c14-3.3,28.1-6.6,42.2-9.7,121.5-26.8,235.3-40.4,348-41.5h0Z"/>
          <path class="cls-4" d="M331.6,1013.2h10.7c105.1,0,213.4,14.8,339.7,46.3,66.2,16.5,131.1,35.8,194.8,55.6h2.1c-64.2-20.1-129.7-39.5-196.5-56.2-126.5-31.6-234.9-46.4-340.1-46.4h-10.7c-112.1,1.1-225.2,14.9-345.9,42.1-15.7,3.6-31.4,7.3-47,11.1v.6c15.7-3.9,31.5-7.6,47.3-11.2,120.6-27.3,233.6-41,345.6-42.1v.2Z"/>
          <path class="cls-3" d="M338.2,999.8c106.6-.9,217.2,14.2,348,47.5,78.2,19.9,154.5,43.7,229,67.9h2.1c-75-24.4-151.8-48.3-230.6-68.4-127.2-32.4-235.3-47.6-339.2-47.6h-9.3c-56.6.5-114.7,4.4-172.6,11.6-54.4,6.8-110.3,16.7-166.4,29.4-20.3,4.6-40.4,9.5-60.4,14.6v.6c20.1-5.1,40.4-10.1,60.8-14.7,117-26.6,227.8-40,338.7-41h0Z"/>
          <path class="cls-2" d="M345.1,986.4c104.6-.8,214.5,14.7,345.5,48.8,89.4,23.3,176.3,51.6,260.7,79.9h2c-84.9-28.5-172.3-57-262.3-80.5-127.9-33.3-235.6-48.9-338.1-48.9h-7.8c-57.5.4-116.3,4.4-174.7,11.8-55.1,7-111.6,17.2-168.1,30.5-21.4,5-42.6,10.4-63.7,15.9v.6c21.2-5.6,42.6-11,64.1-16,117.5-27.5,229.5-41.4,342.4-42.2h0Z"/>
          <path class="cls-1" d="M350.1,973h6.7c103.7,0,213,16.4,343.2,51.5,98.2,26.5,193.2,58.9,285.3,90.7h2c-92.6-31.9-188.1-64.6-286.9-91.2-130.4-35.1-239.8-51.6-343.6-51.6h-6.7c-109.9.8-223,14.8-336.4,41.8-25.3,6-50.3,12.5-75.1,19.3v.6c24.9-6.8,50-13.4,75.4-19.4,113.2-27,226.3-41,336-41.8h.1Z"/>
          <path class="cls-8" d="M357.3,959.7h4c102.9,0,212.3,16.9,343.6,53,105.1,28.9,206.5,64.7,304.5,99.4,2.9,1,5.9,2.1,8.8,3.1h1.9c-3.4-1.2-6.8-2.4-10.2-3.6-98-34.7-199.4-70.5-304.6-99.4-61.7-17-117-29.4-169.2-38-61.5-10.1-118.7-15.1-174.8-15.1h-4c-109.1.5-221.6,14.5-334.2,41.9-28.5,6.9-56.6,14.5-84.5,22.4v.6c27.9-8,56.2-15.6,84.8-22.5,112.5-27.3,224.8-41.4,333.8-41.8h0Z"/>
          <path class="cls-81" d="M364.8,946.4h2.2c135.6,0,263.9,32,348.7,56.1,104,29.6,204.3,65.9,301.4,101,10.7,3.9,21.4,7.8,32.2,11.6h1.9c-11.2-4-22.4-8.1-33.6-12.1-97-35.1-197.4-71.4-301.5-101-62.6-17.8-118.4-30.9-170.5-39.9-63.1-11-121.6-16.3-178.5-16.3h-2.4c-107.8.3-217.8,14-326.9,40.7-33.6,8.2-66.7,17.4-99.2,27.1v.7c32.7-9.7,65.9-19,99.6-27.2,109-26.7,218.9-40.3,326.5-40.6h.1Z"/>
          <path class="cls-83" d="M366.5,933.1h3.3c136.8,0,265.8,32.9,351.2,57.7,105.6,30.7,207.2,68.3,305.4,104.6,17.7,6.6,35.6,13.2,53.5,19.7h1.9c-18.4-6.7-36.6-13.5-54.8-20.2-98.3-36.3-199.8-73.9-305.5-104.6-63.1-18.4-119.4-31.8-172-41.1-63.4-11.2-122.1-16.7-179.4-16.7h-3.5c-105.2.4-212.4,14.1-318.7,40.7-37.1,9.3-73.4,19.8-109.1,30.9v.7c35.8-11.1,72.3-21.7,109.5-31,106.2-26.6,213.3-40.2,318.3-40.6h0Z"/>
          <path class="cls-75" d="M372,919.9h2.6c136.2,0,262.1,32.4,356.6,60.8,104.9,31.4,205.8,69.6,303.4,106.5,24.6,9.3,49.3,18.7,74.3,28h1.9c-25.4-9.5-50.6-19-75.6-28.5-97.6-36.9-198.5-75.1-303.5-106.6-64.2-19.2-121.1-33.3-174-43.1-64.8-11.9-124.7-17.8-183-17.8s-1.8,0-2.7,0c-104.9.3-211.5,14.3-316.9,41.4-39.7,10.2-78.5,22-116.5,34.3v.7c38.1-12.3,77-24.1,116.9-34.4,105.2-27.1,211.7-41.1,316.5-41.4h0Z"/>
          <path class="cls-94" d="M379.8,906.7h.5c135.1,0,261.4,33.3,356.4,62.3,106.5,32.6,208.7,72,307.5,110.2,30.9,11.9,62.1,24,93.6,35.9h1.8c-32-12.1-63.6-24.3-94.9-36.4-98.9-38.2-201.1-77.7-307.6-110.3-64.9-19.8-119.7-33.8-172.6-43.9-65.4-12.5-125.7-18.5-184.2-18.5h-.5c-104.7,0-210.5,14-314.4,41.5-43.4,11.5-85.5,24.8-126.7,38.7v.7c41.3-13.9,83.6-27.3,127.1-38.8,103.8-27.4,209.4-41.4,314-41.4h0Z"/>
          <path class="cls-84" d="M384.5,893.4h3c133.7.4,259.6,34.3,354.4,63.9,107.6,33.6,210.7,74.3,310.5,113.7,37.2,14.7,74.7,29.5,112.8,44.1h1.8c-38.5-14.7-76.5-29.7-114.1-44.6-99.7-39.4-202.9-80.1-310.5-113.7-94.9-29.6-221-63.6-354.9-64h-3c-101.7,0-204,13.5-304,40.3-48.9,13-96,28.7-141.8,44.8v.7c46-16.2,93.2-31.9,142.2-45,100-26.7,202.1-40.2,303.6-40.2h0Z"/>
          <path class="cls-93" d="M389.2,880.2h4c134.5.5,262.7,36.1,359.3,67.1,107.2,34.4,210,75.8,309.3,115.8,43.1,17.4,86.7,34.9,131,52.1h1.8c-44.8-17.3-88.8-35-132.3-52.5-99.4-40-202.1-81.4-309.4-115.8-96.8-31-225.1-66.7-359.8-67.2h-4c-101.2,0-202.5,13.8-301,41-51.7,14.3-101.3,31.7-149.4,49.3v.7c48.3-17.7,98-35.1,149.9-49.4,98.4-27.2,199.5-41,300.6-41h0Z"/>
          <path class="cls-91" d="M400.9,867c133.7,1.2,260.9,37.3,356.8,68.6,108.5,35.4,212.2,78.1,312.6,119.3,49,20.1,98.5,40.5,149.1,60.2h1.8c-51-19.9-101-40.4-150.4-60.7-100.3-41.3-204.1-83.9-312.6-119.4-96-31.3-223.3-67.5-357.2-68.6h-8.9c-48.4,0-97.6,3.4-146.5,10.2-49.8,6.9-99.3,17.3-147.2,30.9-55.6,15.8-108.5,35.3-159.7,54.8v.7c51.3-19.6,104.3-39.2,160.1-55,97.7-27.7,202.1-41.8,302.1-41h0Z"/>
          <path class="cls-92" d="M400.1,853.8h2.5c133.5.3,262.6,37.6,360.2,70,110.2,36.6,215.3,80.6,317,123.2,54.5,22.8,109.8,46,166.4,68.2h1.8c-57-22.4-112.7-45.7-167.6-68.7-101.7-42.6-206.8-86.6-317.1-123.2-66.2-22-121.2-37.4-173.2-48.6-67.1-14.4-128.4-21.4-187.5-21.5h-2.4c-49.6,0-99.6,3.5-148.8,10.5-48.7,6.9-96.8,17.2-142.9,30.6-59.6,17.3-115.6,39.3-169.8,60.7v.7c54.3-21.5,110.5-43.5,170.3-60.9,93.6-27.2,191.6-41,291.2-41h-.1Z"/>
          <path class="cls-76" d="M123.3,880.3c90.6-26.6,189.7-40.4,286.8-39.8,133.4.8,258.9,37.7,364.2,73.6,108.9,37.2,212.9,81.5,313.4,124.4,60.4,25.7,121.7,51.8,184.7,76.7h1.8c-63.4-25-125.1-51.3-185.9-77.2-100.6-42.9-204.6-87.2-313.5-124.4-67.1-22.9-122.6-39-174.7-50.6-68.1-15.2-130.2-22.7-189.9-23.1h-6c-95.3,0-192.4,13.8-281.2,39.9-61.5,18.1-118.6,41.4-173.8,64-3.4,1.4-6.9,2.8-10.4,4.2v.7c3.7-1.5,7.3-3,10.9-4.5,55.2-22.6,112.3-45.9,173.7-64h0Z"/>
          <path class="cls-82" d="M130.5,867.7c89-27.2,187.4-41.2,284.8-40.6,132.2.8,257.5,38.1,362.6,74.5,111,38.4,216.8,84.3,319,128.6,65.8,28.5,132.7,57.5,201.7,84.9h1.8c-69.5-27.5-136.7-56.7-202.9-85.3-102.3-44.3-208-90.2-319.1-128.6-42.1-14.6-105.9-35.7-173.8-51.1-67.9-15.4-129.8-23.1-189.3-23.5h-6.1c-95.5,0-191.8,14-279.1,40.7-58.6,17.9-112.8,40.8-165.3,63-8.6,3.6-17.4,7.3-26.1,11v.7c9-3.8,17.9-7.5,26.7-11.3,52.4-22.2,106.6-45.1,165.1-62.9h0Z"/>
          <path class="cls-89" d="M139.9,854.5c88.1-27.6,185.8-41.6,282.8-40.6,131.2,1.4,255.4,39,359.6,75.6,112.4,39.5,219.3,86.6,322.6,132.2,71.4,31.5,144.2,63.6,219.6,93.5h1.8c-75.8-30-148.9-62.3-220.7-94-103.3-45.6-210.2-92.7-322.7-132.2-104.3-36.6-228.7-74.3-360.1-75.7h-10.1c-93.8,0-188,14-273.2,40.7-56.7,17.8-109,40.6-159.4,62.7-13.6,5.9-27.4,12-41.4,18v.7c14.2-6.1,28.2-12.2,41.9-18.2,50.5-22.1,102.6-44.9,159.3-62.7h0Z"/>
          <path class="cls-88" d="M153.1,839.8c85.7-27.1,181.3-40.7,276.6-39.4,131.6,1.9,257.6,41,363.5,79.1,111.4,40,217.3,87.5,319.7,133.3,77.2,34.5,155.8,69.8,237.8,102.2h1.8c-82.4-32.6-161.4-68-239-102.7-102.4-45.9-208.4-93.3-319.8-133.4-106-38.1-232.2-77.3-364-79.2h-13c-91.2,0-182.2,13.6-264.2,39.5-56.6,17.9-108,41.2-157.8,63.8-18.3,8.3-37.1,16.8-56.2,25.1v.7c19.3-8.3,38.3-16.9,56.8-25.3,49.7-22.5,101.2-45.8,157.7-63.7h0Z"/>
          <path class="cls-87" d="M161.7,826.5c81.5-26.5,174.5-40.1,268.8-39.5,131.8.9,259.4,41,366.8,80.1,112.8,41.1,219.8,89.7,323.3,136.7,83,37.7,167.7,76.2,256.5,111.3h1.8c-89.2-35.2-174.3-73.9-257.7-111.8-103.5-47-210.5-95.7-323.3-136.8-107.5-39.2-235.3-79.3-367.3-80.2h-6.3c-92.4,0-183.2,13.6-263,39.6-54.7,17.8-104,40.9-151.8,63.3-23,10.8-46.6,21.9-70.7,32.3v.7c24.4-10.5,48.2-21.7,71.3-32.6,47.7-22.4,97-45.5,151.6-63.3v.2Z"/>
          <path class="cls-90" d="M23.3,876.2c45.9-22.3,93.4-45.4,146.4-63.1,80.5-26.9,173-40.5,267.5-39.5,133.1,1.5,262,43,370.5,83.4,111.6,41.5,217.6,90.4,320.2,137.6,89,41,180,82.9,275.8,120.6h1.8c-96.2-37.8-187.6-79.9-277-121-102.6-47.2-208.6-96.1-320.3-137.6-47.1-17.5-109.7-39.8-176.5-56.5-70-17.5-133.6-26.3-194.5-27h-10.2c-91.1,0-180.1,13.6-257.8,39.6-53.1,17.7-100.6,40.8-146.5,63.1-25.5,12.4-51.8,25.2-78.8,36.9-1.7.8-3.5,1.5-5.2,2.2v.7c1.9-.8,3.9-1.6,5.8-2.5,27-11.8,53.4-24.6,78.8-36.9h0Z"/>
          <path class="cls-79" d="M36.1,862.4c44.1-22.2,89.8-45.2,141.2-62.8,79.5-27.2,171.5-40.9,266.3-39.6,131.7,1.8,259.7,43.5,367.5,84.1,112.9,42.5,220,92.5,323.6,140.8,95.2,44.5,192.7,90,296,130.2h1.8c-103.7-40.4-201.6-86.1-297.2-130.7-103.6-48.4-210.7-98.4-323.7-140.9-46.7-17.6-108.8-39.9-175-56.7-69.5-17.7-132.7-26.7-193.1-27.5h-12.4c-42.4,0-84.7,3.1-125.8,9.1-45.7,6.7-89,17.1-128.6,30.6-51.4,17.6-97.1,40.6-141.3,62.9-24,12.1-48.9,24.6-74.4,36.1-7.4,3.3-14.8,6.5-22.3,9.6v.7c7.7-3.2,15.4-6.4,22.9-9.8,25.5-11.5,50.4-24,74.4-36.1h0Z"/>
          <path class="cls-86" d="M47.9,848.6c43.1-22.4,87.6-45.7,138.3-63.3,75.7-26.3,165.5-39.8,259.4-38.9,131.3,1.2,255.1,41.6,369.3,85,113.8,43.3,221.6,94.2,325.9,143.5,101.7,48.1,206,97.4,317.4,140.2h1.8c-111.7-42.9-216.4-92.4-318.5-140.7-104.3-49.3-212.1-100.3-326-143.6-47.1-17.9-109.6-40.6-175.6-57.5-70-18-133.5-27-194.2-27.5h-8.8c-91,0-177.7,13.4-251.2,39-50.8,17.7-95.4,40.9-138.5,63.4-24.1,12.5-49,25.5-74.7,37.4-11.1,5.1-22.4,9.9-33.9,14.4v.7c11.7-4.6,23.2-9.5,34.5-14.7,25.7-11.9,50.7-24.9,74.7-37.4h0Z"/>
          <path class="cls-80" d="M58.8,834.8c41.5-22.4,84.4-45.5,133.7-63,75.1-26.8,164.6-40.3,258.8-39.1,130.2,1.7,252.9,42,366,85.4,115.7,44.3,224.9,96.5,330.5,147,108.2,51.8,219.4,104.9,338.9,150.2h1.8c-120-45.4-231.5-98.7-340.1-150.6-105.6-50.5-214.9-102.7-330.6-147-46.7-17.9-108.7-40.6-173.9-57.5-69.4-18-132.4-27.1-192.6-27.9h-11.6c-41.8,0-83.2,3-123,8.9-44.9,6.6-86.9,16.9-124.8,30.4-49.4,17.6-92.3,40.7-133.8,63.1-22.7,12.3-46.3,24.9-70.6,36.6-15.8,7.6-32.1,14.5-48.9,20.7v.7c16.9-6.3,33.4-13.3,49.5-21,24.3-11.6,47.9-24.3,70.6-36.6v-.3Z"/>
          <path class="cls-85" d="M68.7,820.8c39.5-22,80.3-44.8,127.6-62.2,72.6-26.7,161.3-40.5,256.5-39.7,132.9,1.1,258.6,43.2,374.7,88.6,113.2,44.3,220.4,96,324,146.1,116,56,235.2,113.6,364.5,161.5h1.9c-129.8-48-249.4-105.8-365.8-161.9-103.7-50.1-210.9-101.8-324.1-146.1-47.8-18.7-111.2-42.4-177.7-60-71.2-18.8-135.8-28.2-197.5-28.7h-7.7c-92.4,0-178.5,13.7-249.3,39.8-47.3,17.4-88.2,40.2-127.7,62.2-21.7,12.1-44.2,24.6-67.5,36.1-19.8,9.8-40.4,18.4-61.8,26v.7c21.6-7.7,42.4-16.4,62.4-26.3,23.3-11.5,45.8-24,67.6-36.2h-.1Z"/>
          <path class="cls-78" d="M77.8,806.6c38.6-22.2,78.4-45.1,125.2-62.5,71.9-26.7,163.2-40.6,257.1-39,132.2,2.2,255.9,44.1,369.9,89,114.2,45,222.2,97.6,326.6,148.6,123.5,60.3,250.8,122.3,390.1,172.5h1.9c-139.8-50.2-267.5-112.5-391.4-172.9-104.4-50.9-212.4-103.6-326.7-148.6-47.1-18.5-109.6-42.1-175.4-59.7-70-18.7-133.8-28.3-195-29.4-5,0-9.9,0-14.9,0-40.7,0-80.7,2.8-119.1,8.5-45.1,6.6-86.7,17-123.7,30.7-46.8,17.4-86.8,40.4-125.4,62.6-22,12.6-44.7,25.7-68.4,37.6-22.2,11.1-45.5,20.8-70,29v.7c24.8-8.3,48.3-18,70.7-29.2,23.8-11.9,46.5-25,68.5-37.6v-.2Z"/>
          <path class="cls-77" d="M85.1,792.7c36.9-21.9,75.1-44.5,120.1-61.8,70.6-27.1,158.8-40.9,255.1-39.9,132.1,1.4,256.7,43.7,371.6,89.3,114.9,45.5,223.3,98.9,328.2,150.6,131.9,65,268.1,132,419,184.3h2c-151.4-52.3-287.9-119.6-420.3-184.7-104.9-51.6-213.3-105-328.2-150.6-50.3-19.9-110.6-42.7-176-60.2-70.6-18.9-134.7-28.5-196.1-29.1h-9.9c-92.6,0-177.4,13.8-245.7,40-45.1,17.3-83.3,40-120.3,61.9-21,12.4-42.7,25.3-65.4,37.1-25.1,12.9-51.8,23.9-80.3,33v.7c28.8-9.1,55.7-20.2,80.9-33.2,22.8-11.8,44.5-24.6,65.5-37.1l-.2-.3Z"/>
          <path class="cls-24" d="M91.4,778.5c36.3-22.1,73.8-45,118.7-62.3,69.7-26.9,160.9-40.8,256.8-39.2,131.1,2.3,253.6,44.2,366.3,89.1,116.1,46.3,225.6,100.5,331.4,152.9,138.6,68.7,281.8,139.6,441.8,193.6,2.4.8,4.8,1.6,7.3,2.4h2c-3-1-5.9-2-8.8-2.9-159.9-54-303.2-124.9-441.7-193.6-105.8-52.4-215.3-106.7-331.5-153-46.6-18.6-108.4-42.1-173.5-59.7-69.4-18.8-132.6-28.4-193.4-29.5-5.3,0-10.5,0-15.7,0-40.8,0-80.6,2.8-118.3,8.3-45.5,6.6-87,17.1-123.3,31.1-45,17.4-82.5,40.2-118.8,62.4-20.2,12.3-41.1,25-63,36.7-27.4,14.5-57,26.6-89,36.3v.7c32.3-9.7,62.1-21.9,89.7-36.5,21.9-11.7,42.8-24.4,63-36.7h0Z"/>
          <path class="cls-23" d="M96.3,764.2c34.8-21.8,70.8-44.3,114.1-61.4,68.9-27.3,157.3-41.1,255.9-39.9,131.9,1.6,254.6,43.6,367.6,88.8,116.8,46.7,226.7,101.6,332.9,154.6,139.4,69.6,283.5,141.5,444.9,196,13.7,4.6,27.1,8.9,40.3,12.9h2c-14.9-4.5-28.9-9-41.8-13.4-161.3-54.4-305.4-126.3-444.7-195.9-106.3-53.1-216.2-107.9-333-154.7-46.7-18.7-108.6-42.4-174-60-69.5-18.7-133-28.2-194.1-28.9h-11.7c-94,0-178.4,13.8-244.7,40.1-43.4,17.2-79.4,39.7-114.3,61.5-19.4,12.2-39.6,24.7-60.7,36.2-29.2,15.9-61.2,28.8-96.2,38.9v.7c35.3-10.1,67.5-23.2,96.9-39.1,21.2-11.5,41.3-24.1,60.8-36.3h-.2Z"/>
          <path class="cls-36" d="M99.8,749.8c34-21.8,69.2-44.3,111.9-61.4,67.7-27.1,156.1-40.9,255.8-39.9,132.2,1.3,254.8,43.5,367.6,88.8,117,47,227,102.3,333.4,155.7,139.6,70.1,283.9,142.6,445.8,197.4,28.5,9.7,55.8,17.9,82.2,24.8h2.7c-27.3-7-55.4-15.5-84.4-25.3-161.8-54.8-306.1-127.2-445.6-197.3-106.4-53.4-216.4-108.7-333.5-155.7-46.6-18.7-108.5-42.5-173.9-60.1-69.5-18.7-133-28.1-194.2-28.8h-10.2c-95.8,0-180.7,13.8-246.3,40.1-42.8,17.1-78,39.7-112.1,61.5-19,12.2-38.7,24.7-59.4,36.2-30.2,16.8-63.8,30.2-100.9,40.6v.7c37.3-10.3,70.8-23.8,101.6-40.9,20.8-11.5,40.5-24.1,59.5-36.3h0Z"/>
          <path class="cls-32" d="M101.7,735.4c33.8-22,68.7-44.8,111.6-61.9,66.2-26.5,151.1-39.7,252.4-39.4,133,.5,255.8,42.6,368.6,88,117.6,47.4,228,103.1,334.8,157,140.2,70.8,285.3,144,448.4,199.1,47.8,16.2,93.2,28.5,136.7,37.1h3.2c-44.4-8.6-90.6-21.1-139.4-37.6-163-55.1-308-128.2-448.2-199-106.8-53.9-217.2-109.6-334.9-157-46.6-18.8-108.6-42.6-174.3-60.1-69.7-18.6-133.4-27.8-194.9-28h-3.9c-99.7,0-183.5,13.3-249.1,39.5-43,17.2-78,40-111.8,62-18.5,12-37.5,24.4-57.7,35.8-31,17.5-65.7,31.5-104.6,42v.7c39-10.5,73.7-24.5,105.3-42.3,20.2-11.4,39.3-23.8,57.8-35.9h0Z"/>
          <path class="cls-26" d="M102,720.8c33.4-21.9,68-44.5,110.6-61.6,65.7-26.3,150.2-39.6,251.1-39.6s1.3,0,2,0c132.7.2,255.6,42.4,368.6,87.9,117.7,47.4,228.1,103.2,334.8,157.1,140.2,70.9,285.3,144.1,448.4,199.3,91.2,30.8,173.5,47.7,252.2,51.3h17.2c-83.7-1.8-171.1-18.8-268.9-51.8-163.1-55.1-308.1-128.3-448.3-199.2-106.8-54-217.2-109.8-334.9-157.2-46.7-18.8-108.7-42.6-174.3-60.2-69.7-18.6-133.5-27.7-194.9-27.8h-2c-101.1,0-185.8,13.4-251.7,39.7-42.7,17.1-77.3,39.8-110.8,61.7-18.3,12-37.2,24.3-57.2,35.7-31.1,17.6-66.1,31.6-105.4,42.2v.8c39.5-10.6,74.5-24.6,106.1-42.5,20-11.4,38.9-23.7,57.2-35.7h.2Z"/>
          <path class="cls-25" d="M100.9,706.4c33.5-21.5,68.1-43.7,110.5-60.5,84.3-33.3,184.2-40.2,253.1-40.1,131,.2,254.8,42.6,369.1,88.5,117.3,47.1,227.6,102.5,334.2,156,139.9,70.3,284.7,143,447.2,197.8,118.1,39.8,220.6,56.6,319,51.9v-.6c-98.2,4.7-200.6-12-318.5-51.8-162.4-54.8-307.1-127.5-447-197.8-106.6-53.6-216.9-109-334.3-156.1-49.9-20-109.7-42.9-174.5-60.3-70.3-18.9-134.1-28.2-195.1-28.2h-1.2c-69,0-168.4,7-252.4,40.2-42.5,16.8-77.1,39.1-110.7,60.6-18.3,11.8-37.2,23.9-57.2,35.1-30.7,17.1-65.4,30.9-104.2,41.4v.8c39-10.5,73.6-24.2,104.9-41.7,20-11.2,39-23.3,57.3-35.1h-.2Z"/>
          <path class="cls-37" d="M98.4,692.1c33.5-21,68.2-42.8,110.3-59.1,67-26,156.9-40.3,253.1-40.2,129.6,0,254,42.7,369.2,88.7,117,46.7,226.9,101.6,333.3,154.6,139.6,69.6,283.9,141.6,445.6,196,62.3,21,118.8,35.2,172.6,43.7,52.5,8.3,102.4,11,151.4,8.4v-.6c-99,5.3-202.9-11.4-323.5-52-161.7-54.3-305.9-126.3-445.5-195.9-106.4-53.1-216.4-108-333.4-154.7-115.3-46-239.9-88.7-369.8-88.8h-.8c-45.7,0-89.9,3.2-131.3,9.4-45.5,6.9-86.4,17.3-121.6,30.9-42.2,16.4-76.9,38.2-110.5,59.2-18.3,11.5-37.3,23.4-57.3,34.3-30.5,16.6-64.1,29.9-101.7,40.2v.5c37.9-10.3,71.7-23.6,102.4-40.3,20-10.9,39-22.8,57.3-34.3h.2Z"/>
          <path class="cls-33" d="M94.5,678.1c34-20.7,69.1-42.1,111.6-58.1,69.7-26.1,163-40.5,255.9-39.4,130,1.5,255.1,44.6,370.9,90.9,114,45.6,221.6,98.9,325.7,150.4,139.7,69.1,284.1,140.6,445.7,194.5,62.7,20.9,119.4,35.1,173.3,43.5,54.3,8.4,105.7,11,156.2,7.8v-.6c-100.3,6.4-205.8-10.1-329-51.2-161.6-53.8-306-125.3-445.6-194.4-104.1-51.5-211.8-104.8-325.8-150.4-115.9-46.4-241.2-89.5-371.4-91h-9.8c-89.9,0-179.3,14.3-246.7,39.6-42.6,16-77.8,37.4-111.8,58.1-19.1,11.6-38.9,23.7-59.7,34.6-28.7,15.1-60.3,27.4-95.4,37v.6c35.4-9.7,67.1-21.9,96.1-37.1,20.9-11,40.7-23,59.8-34.7h0Z"/>
          <path class="cls-34" d="M89.5,664.2c34-20.1,69.2-40.8,111.4-56.2,70.9-25.8,164.2-40,255.9-38.9,129.3,1.6,254.5,44.4,370.5,90.4,113.5,45,220.7,97.6,324.4,148.5,139.1,68.2,282.9,138.7,443.6,191.8,62.9,20.8,119.6,35,173.4,43.3,57.7,9,112,11.3,165.3,7.2v-.6c-102.5,7.9-210.6-8.3-338.1-50.4-160.6-53.1-304.4-123.6-443.4-191.8-103.7-50.9-211-103.5-324.5-148.5-116.1-46-241.4-88.9-371-90.5h-10.2c-88.6,0-177.8,14.1-246.3,39-42.3,15.4-77.5,36.2-111.6,56.2-19.1,11.3-38.9,22.9-59.8,33.6-27.3,13.9-57.2,25.3-90.3,34.5v.6c33.3-9.2,63.4-20.7,91-34.7,20.9-10.6,40.7-22.3,59.9-33.6h-.2Z"/>
          <path class="cls-35" d="M83.2,650.5c33.6-19,68.3-38.7,109.3-53.4,68.9-24.6,159.7-38.6,249.8-38.6s3.7,0,5.5,0c128.6.8,254.4,43.2,371,88.9,113.2,44.3,220.2,96.3,323.7,146.6,139,67.5,282.7,137.3,443.2,189.5,62.2,20.3,118.1,34.1,170.9,42.3,62.2,9.7,120.3,11.8,177.2,6.4v-.6c-137.3,13-263.9-21.4-347.6-48.7-160.4-52.2-304.1-122-443.1-189.5-103.5-50.3-210.6-102.3-323.8-146.6-116.8-45.8-242.7-88.2-371.6-89h-5.5c-90.3,0-181.3,14-250.4,38.7-41.1,14.7-75.9,34.4-109.5,53.4-19,10.7-38.6,21.9-59.1,32-25.8,12.7-53.8,23.3-84.7,31.9v.6c31.1-8.7,59.4-19.4,85.4-32.1,20.6-10.1,40.2-21.2,59.2-32v.2Z"/>
          <path class="cls-72" d="M75.9,637c34-18.4,69.2-37.5,110.5-51.5,69.9-23.7,159.1-36.9,251.2-37.1h1.2c126.5,0,252.8,42,370.3,87.5,113.3,43.8,220.5,95.2,324.2,144.9,136.4,65.4,277.4,133,434,184.1,63.7,20.8,120.8,35,174.6,43.4,66.2,10.4,127.6,12.2,187.8,5.7,1.4,0,2.7-.3,4.1-.5v-.6c-1.4.2-2.9.3-4.3.5-142.2,15.5-274.6-20.6-361.7-49-156.6-51.1-297.5-118.7-433.9-184.1-103.7-49.7-210.9-101.1-324.2-144.9-117.7-45.5-244.1-87.6-370.9-87.6h-1.2c-44.1,0-87.8,3.2-130,9.2-44.9,6.4-85.8,15.8-121.7,28-41.4,14.1-76.7,33.2-110.7,51.6-18.8,10.2-38.2,20.7-58.5,30.3-23.9,11.3-49.8,20.9-78.1,28.9v.7c28.5-8.1,54.6-17.7,78.7-29.1,20.3-9.6,39.8-20.1,58.6-30.3h0Z"/>
          <path class="cls-74" d="M67.6,623.6c33.5-17.3,68.2-35.2,108.4-48.4,72.3-23.7,168.5-37.3,257.5-36.3,126.8,1.4,250.3,42,364.9,85.6,113.1,43,220.1,93.7,323.6,142.7,136,64.4,276.7,130.9,432.7,181,63.8,20.5,121.1,34.4,175.1,42.6,66.3,10.1,127.7,11.7,187.8,4.9,5.5-.6,11.1-1.3,16.6-2.1v-.6c-5.6.8-11.2,1.5-16.8,2.1-142.2,16-274.8-19.4-362.2-47.5-156-50.1-296.6-116.6-432.6-181-103.5-49-210.5-99.6-323.6-142.7-114.7-43.7-238.4-84.3-365.4-85.7h-9.2c-40.5,0-83.1,2.9-123.9,8.6-45.3,6.3-88.5,15.9-124.9,27.9-40.2,13.2-75,31.1-108.5,48.4-18.6,9.6-37.8,19.5-57.8,28.5-21.7,9.8-45.1,18.3-70.4,25.6v.7c25.4-7.3,49-15.8,71-25.8,20-9,39.3-19,57.9-28.6h-.2Z"/>
          <path class="cls-69" d="M58.7,610.2c33.9-16.5,68.9-33.6,109.2-46,71.6-22,163.9-34.5,253.4-34,126.5.6,250.1,40.4,364.8,83.4,112.7,42.2,219.4,92,322.6,140.2,135.6,63.3,275.9,128.8,431.4,177.7,62.8,19.8,119.2,33.3,172.4,41.3,65.3,9.8,125.6,11.5,184.5,5.2,12.4-1.3,24.7-3,37-5v-.6c-12.3,2-24.7,3.7-37.2,5-106.1,11.4-219.3-3.3-356.2-46.5-155.4-48.9-295.6-114.4-431.2-177.7-103.2-48.2-209.9-98-322.7-140.2-49.9-18.7-109.6-40-173.7-56.4-70-17.9-132.7-26.8-191.7-27h-4.2c-88.3,0-179,12.4-249.6,34.1-40.3,12.4-75.4,29.5-109.4,46.1-19.5,9.5-39.7,19.3-60.7,28.2-18.5,7.8-38,14.7-58.7,20.7v.6c21-6.1,40.7-13,59.3-20.9,21-8.9,41.2-18.7,60.7-28.2h0Z"/>
          <path class="cls-66" d="M48.3,597.2c33.5-15.3,68.1-31.1,107.2-42.6,71.1-20.9,160.8-32.5,252.6-32.9h2.3c126.4,0,252.4,40.3,369.7,83.9,109.4,40.7,213.5,88.5,314.1,134.7,135.3,62.2,275.1,126.4,430,174.2,137,42.3,250.4,56.4,356.9,44.6,17.7-2,35.3-4.6,52.7-8v-.6c-17.5,3.4-35.1,6.1-52.9,8-106.2,11.8-219.4-2.3-356.2-44.5-154.8-47.7-294.6-112-429.8-174.1-100.6-46.2-204.7-94.1-314.1-134.7-51.2-19-112.2-40.7-177.1-57.2-71-18-134.2-26.8-193.1-26.8s-1.6,0-2.3,0c-92,.4-181.8,12.1-253.1,33-39.2,11.5-73.9,27.4-107.4,42.7-19.3,8.8-39.2,17.9-59.8,26.1-16,6.4-32.5,12-49.3,16.8v.7c17.4-5.1,34-10.7,49.8-17,20.6-8.2,40.5-17.3,59.8-26.1v-.2Z"/>
          <path class="cls-65" d="M37.6,584.2c33.9-14.4,69-29.3,108.2-40,74.3-20.1,167.3-31.2,255.4-30.4,127.7,1.1,256.1,41.8,364.9,81.4,109.2,39.8,213.1,86.7,313.5,132,132.5,59.8,269.4,121.7,420.3,167.9,138,42.3,251.7,56.7,357.8,45.5,25.7-2.7,51.1-6.9,76.2-12.5v-.6c-25.1,5.7-50.6,9.9-76.3,12.6-105.9,11.3-219.4-3.2-357.1-45.4-150.8-46.2-287.8-108.1-420.2-167.9-100.5-45.4-204.4-92.3-313.6-132.1-46.8-17-108.8-38.7-174.1-54.9-69.8-17.4-132.4-26-191.3-26.6h-8.8c-85.6,0-175.1,11-247,30.5-39.3,10.6-74.4,25.6-108.4,40-19.2,8.1-39,16.6-59.3,24.1-12.8,4.8-25.8,9-39.1,12.9v.6c13.4-3.9,26.6-8.2,39.6-13,20.4-7.6,40.2-16,59.4-24.2h0Z"/>
          <path class="cls-73" d="M25.9,571.3c34.5-13.5,70.1-27.5,109.6-37.2,73-18.1,162.2-27.8,251.3-27.6,128.1.4,256.1,39.9,364.4,78.5,108.7,38.7,212.1,84.6,312.2,129,131.9,58.5,268.4,119,418.5,163.9,137.9,41.2,251.5,55,357.6,43.3,32-3.5,63.5-9.3,94.6-17.4v-.6c-31.2,8.2-62.7,14-94.8,17.5-105.8,11.6-219.3-2.1-357-43.3-150-44.8-286.4-105.3-418.3-163.8-100.1-44.4-203.5-90.3-312.2-129-108.4-38.7-236.6-78.2-364.9-78.6h-3.3c-88.1,0-176.2,9.8-248.4,27.7-39.5,9.8-75.2,23.7-109.7,37.3-18.9,7.4-38.5,15.1-58.6,22-9.3,3.2-18.6,6.2-28.1,8.9v.6c9.8-2.8,19.3-5.8,28.6-9,20.1-6.9,39.7-14.6,58.6-22v-.2Z"/>
          <path class="cls-70" d="M13.8,558.5c34.4-12.3,70-25,108.6-33.7,75.1-17,165.1-26.1,253.4-25.5,127.1.8,252.4,38.6,358.3,75.4,108.6,37.7,212,82.7,311.9,126.2,131.8,57.4,268.1,116.7,418,160.1,62.1,18,118,30.2,171,37.3,64.4,8.7,123.6,9.9,181.1,3.6,40.2-4.4,79.3-12.3,117.9-23.8v-.7c-38.6,11.6-77.8,19.6-118.1,23.9-104.3,11.3-216-1.7-351.4-40.9-149.8-43.4-286-102.7-417.8-160-100-43.5-203.4-88.5-312-126.3-105.9-36.8-231.4-74.6-358.8-75.4h-8.1c-85.8,0-172.7,9-245.6,25.5-38.8,8.8-74.4,21.5-108.8,33.8-19.6,7-39.9,14.2-60.5,20.7-4.7,1.5-9.4,2.9-14.1,4.2v.6c4.9-1.4,9.7-2.8,14.6-4.3,20.7-6.5,41-13.7,60.6-20.7h-.2Z"/>
          <path class="cls-67" d="M.9,545.8c33.9-10.9,69-22.2,106.4-29.9,73.9-15.3,161.3-23.3,252.7-23.2,127.9.2,252.5,36.6,357.6,72.2,108.1,36.6,211,80.5,310.6,122.9,131.1,55.9,266.7,113.7,415.6,155.6,61.9,17.4,117.9,29.2,171.1,36,64.3,8.2,123.4,9,180.6,2.6,47.4-5.3,93.3-15.7,138.5-31.2v-.7c-45.2,15.6-91.2,26-138.7,31.3-104.4,11.7-215.9-.5-351-38.5-148.8-41.9-284.3-99.6-415.4-155.5-99.6-42.4-202.6-86.3-310.7-123-41.8-14.2-105.1-34.7-171.7-49.7-67.6-15.2-128.6-22.6-186.4-22.7h-2.3c-90.7,0-177.3,8-250.7,23.2-37.6,7.8-72.7,19.1-106.6,30-19.4,6.2-39.4,12.7-59.8,18.4-.7.2-1.3.4-2,.5v.6c.8-.2,1.6-.4,2.4-.7,20.4-5.7,40.4-12.2,59.8-18.4v.2Z"/>
          <path class="cls-71" d="M93.2,506.8c76-14,164.1-21.1,254.8-20.7,129.9.6,259.8,38.4,358.5,71.2,105.4,35.1,206.2,77.1,303.6,117.6,126.5,52.7,257.3,107.1,399.8,147.2,62.4,17.6,118.7,29.6,172.1,36.6,65,8.6,124.4,10,181.8,4.1,48.6-5,96.7-15.5,142.9-31.2,9.1-3.1,18.1-6.4,27.2-10v-.6c-55.1,21.6-111.4,35.2-170.2,41.2-104.4,10.7-216.7-2.3-353.3-40.7-142.4-40.1-273.2-94.5-399.7-147.2-97.5-40.6-198.2-82.5-303.7-117.6-41.7-13.9-105-34.1-172.3-48.9-67.6-14.8-128.6-22.2-186.6-22.5h-7.6c-88.1,0-173.6,7.2-247.6,20.8-36.9,6.8-71.9,16.8-105.7,26.4-15.8,4.5-32.1,9.1-48.5,13.4v.6c16.6-4.3,33-9,49-13.6,33.8-9.6,68.8-19.6,105.6-26.4v.3Z"/>
          <path class="cls-68" d="M80.7,497.6c80.3-12.7,169.4-18.7,257.7-17.5,128,1.7,250.8,36,343.4,65.6,107.4,34.4,209.9,76,308.9,116.3,128,52.1,260.3,105.9,404.7,144.5,59.8,16,114,26.9,165.7,33.3,61.3,7.6,119.9,8.8,174.1,3.6,48.8-4.7,96.9-15,143.1-30.6,18.6-6.3,37.2-13.5,55.6-21.7v-.7c-63.9,28.4-129.5,45.6-198.8,52.4-99.5,9.6-210.4-2.4-339.2-36.8-144.3-38.6-276.6-92.4-404.6-144.5-99.1-40.3-201.6-82-309-116.4-92.7-29.7-215.6-63.9-343.9-65.7-7.3,0-14.7-.1-22-.1-81.1,0-162.3,6.1-236,17.7-37,5.8-72.5,14.6-106.9,23.1-11.4,2.8-23.1,5.7-34.9,8.5v.6c11.9-2.8,23.7-5.7,35.3-8.6,34.3-8.5,69.8-17.3,106.8-23.1h0Z"/>
          <path class="cls-22" d="M62.3,489.3c76.4-10.4,162.7-15.6,256.3-15.3,128.5.4,251.3,33.4,344,62.1,107.5,33.3,210.1,73.9,309.3,113.2,123.2,48.8,250.6,99.3,388.6,136.1,62.4,16.6,119,27.9,173,34.5,64.1,7.8,125.3,8.8,181.6,2.9,47.7-5,94.8-15.4,139.9-31,26.5-9.2,53-20.3,79-33.3v-.7c-70.2,35.3-142.2,56.4-219,64.4-103.4,10.8-219.2-1.4-354-37.3-137.9-36.8-265.3-87.2-388.4-136-99.2-39.3-201.8-80-309.4-113.2-62.7-19.4-115.5-33.1-166.3-43.1-63.9-12.6-122.2-18.8-178.2-19h-8.2c-90.6,0-174.1,5.1-248.4,15.3-35.2,4.8-69.6,12-102.8,19-6.8,1.4-13.7,2.9-20.6,4.3v.6c7-1.5,14-2.9,20.9-4.4,33.2-7,67.6-14.1,102.7-19h0Z"/>
          <path class="cls-56" d="M49.2,480.3c80.7-8.9,167.9-12.9,259.2-12,131.7,1.3,258.9,35.4,343.1,60.9,103.9,31.5,203.5,69.9,299.7,107,124.8,48.2,253.9,98,393.8,133.2,128.9,32.5,240.3,43.4,340.4,33.5,48.8-4.9,96.9-15.4,142.7-31.3,35.8-12.4,71.3-28.5,105.9-47.9v-.8c-79.2,44.7-160.7,70.7-248.7,79.4-99.9,9.9-211.1-1-339.8-33.5-139.8-35.2-268.8-85-393.6-133.2-96.3-37.2-195.9-75.6-299.8-107.1-61.3-18.6-115.6-32.3-166.1-42-63.2-12.2-121.3-18.4-177.5-18.9-8.4,0-16.7-.1-25-.1-82.3,0-161,4.1-234.4,12.1-35.3,3.9-70.2,9.8-104,15.6-2.1.4-4.2.7-6.3,1.1v.6c2.2-.4,4.4-.7,6.6-1.1,33.7-5.7,68.6-11.7,103.9-15.6h-.1Z"/>
          <path class="cls-55" d="M288,462.5c133.8.4,260.2,32.8,343.7,57.2,103.6,30.3,203,67.5,299.1,103.6,124.5,46.7,253.3,95,392.7,128.6,129,31.1,240.5,41,340.8,30.2,46.9-5,92.9-15.3,136.8-30.7,39-13.6,77.6-31.7,114.8-53.7,6.1-3.6,12-7.2,18-10.9v-.8c-6.1,3.8-12.4,7.6-18.7,11.4-79.6,47.1-161.7,74.6-251.1,84.2-100.2,10.7-211.5.9-340.3-30.2-139.3-33.6-268-81.8-392.5-128.5-96.1-36-195.6-73.3-299.2-103.6-83.6-24.4-210.1-56.9-344.1-57.3h-12c-89.1,0-167.3,2.9-238.7,8.7-33.2,2.7-66.4,6.9-98.6,11.1v.6c32.3-4.2,65.5-8.4,98.8-11.1,74.6-6.1,156.6-9,250.6-8.7h-.1Z"/>
          <path class="cls-10" d="M267.6,456.9h.2c104.8,0,214.1,17,344.1,53.5,103.6,29.1,203.1,65.2,299.2,100.2,119.8,43.5,243.6,88.5,376.6,120.3,129.6,31,241.6,41.3,342.6,31.6,48.3-4.6,95.7-14.9,140.7-30.5,40.1-13.9,79.6-32.4,117.5-55.1,15.6-9.4,30.7-19.2,45.5-29.1v-.9c-15,10.1-30.3,20-46.2,29.6-79.9,47.9-166.6,76.7-257.7,85.4-100.8,9.7-212.6-.6-342-31.6-132.9-31.8-256.7-76.8-376.5-120.3-96.2-35-195.6-71.1-299.3-100.2-130.1-36.5-239.6-53.6-344.5-53.6h-.2c-69,0-159.6.7-249.3,5.9-26.6,1.5-53.4,3.8-79.6,6.1v.6c26.3-2.4,53.1-4.6,79.7-6.1,89.7-5.2,180.3-5.9,249.2-5.9h0Z"/>
          <path class="cls-17" d="M257,451.3c105.4.3,214.5,16.9,343.2,52.1,100.1,27.4,196.5,61.4,289.8,94.2,121.3,42.7,246.8,86.9,381.5,117.1,58.9,13.2,115.3,22.3,167.8,27,61.5,5.6,119.9,5.4,173.4-.5,46.8-5.1,92.6-15.7,136.3-31.4,38.7-13.9,76.9-32.3,113.4-54.7,24.9-15.3,48.5-31.6,71.4-47.8v-.9c-23,16.4-46.9,32.9-72.1,48.3-78.5,48.1-160.1,76.2-249.2,85.9-100.4,11-211.8,2.3-340.8-26.6-134.7-30.2-260.1-74.3-381.4-117-93.3-32.8-189.8-66.8-289.9-94.2-128.9-35.3-238.1-51.8-343.6-52.2-74.3-.2-162.3,0-252.1,2.7-22,.7-44.2,1.7-66.2,2.7v.6c22-1.1,44.2-2,66.3-2.7,89.7-2.8,177.8-2.9,252-2.7h.2Z"/>
          <path class="cls-19" d="M193.6,445.5c14.3,0,28.6.1,42.9.2,108.4.4,220.8,16.2,343.8,48.5,99.8,26.2,196.1,58.9,289.2,90.6,121,41.2,246.2,83.8,380.4,112.3,56.5,12,111,20.3,161.9,24.7,59,5.1,115.1,5.1,166.9,0,47.4-4.7,93.7-14.9,137.7-30.2,39.3-13.8,77.8-32.1,114.4-54.5,34.5-21.1,66.2-44.2,96.8-66.6,2.1-1.5,4.2-3.1,6.4-4.7v-.9c-2.4,1.7-4.8,3.5-7.2,5.2-30.6,22.4-62.3,45.5-96.7,66.5-77.3,47.3-161.9,75.7-251.5,84.6-96.2,9.5-206.6,1.2-328.3-24.7-134.1-28.5-259.2-71.1-380.2-112.3-93.2-31.7-189.5-64.5-289.3-90.6-59-15.5-114-26.9-167.9-34.9-60.6-9-118.3-13.4-176.3-13.6-14.3,0-28.6-.1-42.9-.2-65.7-.2-133.6-.5-200.4-.2-18.1,0-36.3.2-54.5.3v.6c18.2-.1,36.4-.2,54.5-.3,66.8-.3,134.7,0,200.4.2h-.1Z"/>
          <path class="cls-27" d="M226.1,440c108.3.4,220.4,15.8,342.7,46.9,96.6,24.6,190.1,55.3,280.6,85,118.1,38.8,240.3,78.8,370.4,105.7,127.6,26.3,242.6,34,341.8,22.9,85.2-9.6,165.7-37.4,239.2-82.6,34.7-21.4,66.5-44.8,97.2-67.5,11.8-8.7,23.7-17.5,35.9-26.3v-.9c-12.5,9-24.6,18-36.7,26.9-30.7,22.7-62.4,46.2-97.1,67.5-73.4,45.1-153.7,72.9-238.7,82.4-99,11.1-213.8,3.4-341.2-22.9-130.1-26.9-252.2-66.9-370.3-105.7-90.5-29.7-184.1-60.4-280.7-85-58.9-15-113.8-26-167.6-33.8-60.2-8.6-117.6-12.9-175.5-13.2-75.7-.3-158.6-1.4-253.5-3.5-11.3-.2-22.6-.5-33.9-.7v.6c11.3.3,22.6.5,33.9.7,94.9,2,177.8,3.2,253.5,3.5h0Z"/>
          <path class="cls-21" d="M205.8,434.2c114.4.9,226.8,15.1,343.5,43.4,96.3,23.4,189.7,52.9,280,81.4,117.9,37.3,239.7,75.8,369.3,101,122,23.8,232.8,30.9,329.3,21.1,47.5-4.8,93.7-15.2,137.2-30.9,38.8-14,76.8-32.7,112.9-55.6,32.2-20.4,61.9-42.7,90.7-64.2,21-15.7,42.5-31.8,65.1-47.3v-.9c-22.9,15.7-44.6,32-65.9,47.9-28.7,21.5-58.4,43.8-90.6,64.2-77.2,48.9-158.9,77.2-249.6,86.3-96.3,9.7-207,2.6-328.8-21.1-129.5-25.2-251.3-63.7-369.2-101-90.4-28.6-183.8-58.1-280.1-81.5-116.9-28.4-229.3-42.6-343.9-43.4-88.5-.7-168.5-2.7-244.7-6.3-7.5-.4-15-.7-22.5-1.2v.6c7.5.4,15,.8,22.4,1.2,76.2,3.6,156.3,5.6,244.7,6.3h.2Z"/>
          <path class="cls-12" d="M200.7,428.3c106.6.2,214.4,13.3,329.5,39.8,96,22.2,189.3,50.5,279.5,77.9,117.6,35.7,239.2,72.7,368.2,96.3,122.8,22.5,233.9,28.6,330,18.1,86.1-9.4,166.7-37.6,239.6-83.7,33.2-21,63.4-44,92.7-66.3,29.6-22.5,60.1-45.7,93.7-66.9v-.9c-33.9,21.3-64.7,44.7-94.5,67.4-29.3,22.2-59.5,45.2-92.7,66.2-72.7,46-153.1,74.2-239,83.6-95.9,10.5-206.8,4.4-329.5-18.1-128.9-23.6-250.5-60.6-368.1-96.3-90.2-27.4-183.6-55.8-279.6-77.9-115.2-26.6-223.1-39.6-329.9-39.9-84.2-.2-168.5-3.2-250.6-9-3.8-.3-7.6-.6-11.4-.9v.6c3.8.3,7.5.6,11.3.9,82.1,5.8,166.4,8.9,250.7,9.1h.1Z"/>
          <path class="cls-20" d="M519.6,460.4c92.9,20.7,183.5,47.1,271.1,72.6,114.8,33.4,233.4,68,358.5,90.2,122.6,21.7,233.6,27.7,330,17.7,86.9-9,167.6-36.9,240-83,33.4-21.3,63.8-44.6,93.1-67.3,30.1-23.2,61.3-47.2,95.8-69,8.5-5.3,17.1-10.4,25.8-15.2v-.8c-9,4.9-17.9,10.1-26.5,15.6-34.6,21.8-65.7,45.8-95.9,69-29.3,22.6-59.7,46-93.1,67.2-72.2,46-152.8,73.8-239.4,82.8-96.3,10-207.1,4-329.5-17.6-125-22.2-243.7-56.7-358.4-90.1-87.6-25.5-178.3-51.9-271.2-72.7-113.2-25.2-223.1-37.8-336.2-38.5-87.9-.5-170.3-4.4-245.1-11.5v.6c74.8,7.1,157.2,10.9,245.1,11.4,113,.6,222.8,13.2,335.9,38.4v.2Z"/>
          <path class="cls-31" d="M341.9,424.2c48.5,5.6,98.8,13.9,153.8,25.4,94.8,19.8,187.3,45.6,276.7,70.5,111.9,31.2,227.5,63.5,348.8,84.2,122.2,20.9,233.2,26.7,330,17.2,46.9-4.6,92.1-14.7,134.6-30.1,38.2-13.8,75.2-32.3,110-54.9,32-20.8,61.1-43.5,89.3-65.5,30.8-24,62.6-48.9,98.2-71.2,16.3-10.2,33.2-19.5,50.6-27.8v-.7c-17.7,8.4-34.9,17.8-51.3,28.1-35.7,22.4-67.5,47.2-98.3,71.2-28.1,22-57.3,44.7-89.2,65.5-73.2,47.5-155.3,76-244,84.7-96.7,9.5-207.6,3.7-329.6-17.2-121.2-20.7-236.9-53-348.7-84.2-89.4-24.9-181.9-50.7-276.8-70.5-55.1-11.5-105.4-19.8-153.9-25.4-61.3-7.1-122.4-8.1-174.9-8.5-82-.6-158.7-4.8-228.5-12.5v.6c69.8,7.7,146.5,11.9,228.5,12.5,52.5.4,113.5,1.4,174.7,8.5h0Z"/>
          <path class="cls-28" d="M163.5,408.9c104-.4,206.9,9.7,314.6,31,94.6,18.6,187,43.3,276.3,67.1,111.7,29.8,227.2,60.6,348,79.9,123.7,19.8,235,24.6,331,14.4,86.8-9.2,167-37.8,238.4-84.8,31.2-20.6,59.6-43.1,87.1-64.8,31.1-24.6,63.3-50.1,99.7-72.9,23.9-14.9,48.9-27.8,75.3-38.5v-.6c-26.8,10.8-52.2,23.8-76,38.7-36.4,22.8-68.6,48.3-99.7,72.9-27.5,21.7-55.9,44.2-87.1,64.8-71.2,46.9-151.2,75.4-237.8,84.6-95.8,10.2-207.1,5.3-330.6-14.4-120.7-19.3-236.2-50.1-347.9-79.9-89.4-23.8-181.8-48.5-276.4-67.1-107.9-21.2-210.9-31.4-315-31-75.9.3-153-4.2-224.8-13v.6c69.6,8.5,144.1,13,217.8,13s4.7,0,7,0h0Z"/>
          <path class="cls-30" d="M148.5,401.9c57.3.6,111.4,1.1,167.5,6.8,48.4,4.9,98.5,12.4,153.3,22.8,91.5,17.3,181.2,40.2,267.9,62.2,111.2,28.3,226.1,57.5,345.9,75.5,120.8,18.1,229.9,22.5,324.2,13,87.7-8.8,168.1-37.1,239-84,31.5-20.9,60-43.7,87.6-65.8,30.4-24.4,61.9-49.6,97.5-72.2,31.4-20,65.6-36.3,102.5-48.9v-.8c-37,12.7-71.6,29.2-103.2,49.3-35.6,22.6-67.1,47.9-97.5,72.3-27.6,22.1-56.1,44.9-87.5,65.8-70.8,46.9-151,75.1-238.5,83.9-94.2,9.5-203.2,5.1-323.8-13-119.7-18-234.6-47.2-345.8-75.5-86.8-22.1-176.5-44.9-268-62.3-54.8-10.4-105-17.8-153.4-22.8-56.2-5.7-110.4-6.3-167.7-6.8h-8.1C67.6,400.6,0,396.2-61.3,388.2v.6C0,396.7,67.6,401.1,140.4,401.9h8.1,0Z"/>
          <path class="cls-29" d="M138,394.4c107.5-.5,210.6,8.3,315.2,27,91.4,16.3,181.1,38.1,267.9,59.1,108.9,26.4,221.5,53.7,338.2,70.5,125.6,18,237.4,21.9,332.5,11.6,85.4-9.3,163.7-37.6,232.9-84,30.8-20.7,58.7-43.3,85.7-65.2,29.5-23.9,59.9-48.7,94.4-70.9,38.7-25.1,81.9-44.4,129.2-58.1v-.8c-47.3,13.6-90.9,33.2-130,58.5-34.5,22.3-64.9,47-94.4,71-26.9,21.9-54.8,44.5-85.6,65.2-69,46.3-147.2,74.5-232.3,83.8-94.9,10.4-206.6,6.5-332-11.6-116.7-16.8-229.2-44.1-338.1-70.5-86.8-21.1-176.6-42.8-268-59.1-104.7-18.7-207.8-27.5-315.5-27-67.4.3-136.3-4.1-199.3-12.8v.6c60.9,8.3,127.4,12.8,192.6,12.8s4.5,0,6.7,0h0Z"/>
          <path class="cls-41" d="M146.3,386.8c50.1.5,97.4.9,146.6,5.3,48.4,4.3,98.4,11,153,20.3,88.4,15.2,175.6,35.3,259.9,54.7,110.6,25.5,225,51.9,343.4,67.4,120.3,15.7,227.6,18.9,318.9,9.5,87.8-9,167.8-38,237.8-86,29.5-20.2,56.2-42.2,82-63.4,28.8-23.7,58.7-48.2,92.4-70.3,45.1-29.6,96.4-51.3,153.5-65v-.8c-5.9,1.4-11.8,2.9-17.6,4.5-50,13.7-96,34.2-136.7,60.9-33.7,22.1-63.6,46.7-92.4,70.4-25.8,21.2-52.6,43.2-82,63.4-69.9,47.9-149.7,76.8-237.3,85.8-91.2,9.4-198.4,6.2-318.6-9.5-118.3-15.5-232.6-41.9-343.2-67.4-84.3-19.5-171.5-39.6-260-54.8-54.6-9.4-104.7-16-153.1-20.4-49.3-4.4-96.7-4.8-146.8-5.3-9.8,0-20-.2-30.1-.3-64.2-.8-123.7-4.9-177.6-12.3v.6c53.9,7.4,113.3,11.5,177.5,12.3,10.1.1,20.3.2,30.1.3h.3Z"/>
          <path class="cls-38" d="M118.4,378.3c57.7.2,112.1.4,168.8,5.3,44.2,3.8,89.6,9.5,138.8,17.3,90.3,14.4,179.5,33.9,265.7,52.8,108,23.7,219.6,48.2,334.6,62.7,124.6,15.7,234.3,18.7,326.2,8.8,86-9.2,164.1-37.7,232.2-84.5,29.8-20.5,56.7-42.8,82.6-64.5,28.2-23.5,57.4-47.7,90.4-69.7,51.6-34.3,109.8-57.8,176.2-70.8v-.5c-13.9,2.7-27.5,5.9-40.7,9.6-49.9,13.8-95.8,34.4-136.2,61.3-33,22-62.2,46.2-90.4,69.7-26,21.6-52.8,44-82.6,64.4-67.9,46.7-145.9,75.1-231.6,84.3-91.7,9.9-201.3,6.9-325.8-8.8-114.9-14.5-226.5-39-334.5-62.7-86.2-18.9-175.4-38.5-265.8-52.8-49.2-7.8-94.7-13.5-138.9-17.3-56.8-4.9-111.3-5.1-168.9-5.3h-7.8c-59.1-.2-118.1-4.3-171.9-11.9v.6c53.9,7.5,112.8,11.6,171.9,11.8h7.8v.2Z"/>
          <path class="cls-40" d="M420.9,391.3c87.5,13.4,174.1,31.4,257.9,48.9,107.6,22.4,218.9,45.6,333.1,59.1,58,6.9,112.8,11.1,162.9,12.8,59.7,1.9,114.8,0,163.8-5.4,84-9.4,160.3-37.4,226.6-83,30.2-20.8,57.2-43.5,83.3-65.5,27.6-23.2,56.2-47.3,88.4-69,56.6-38.1,121.7-63,197-75.1v-.5c-21.5,3.5-42.2,7.9-61.9,13.4-49.9,13.9-95.6,34.6-135.9,61.8-32.3,21.8-60.9,45.8-88.5,69.1-26.1,22-53.1,44.7-83.2,65.5-66.2,45.6-142.2,73.5-226,82.8-89.9,10.1-199.7,7.6-326.3-7.4-114.1-13.5-225.4-36.7-333-59.1-83.8-17.5-170.5-35.5-258-48.9-100.4-15.3-203.5-22.5-315.2-22.1-57.5.3-114.5-3.5-167.2-10.9v.6c52.7,7.3,109.7,11.1,167.2,10.9,111.7-.5,214.7,6.7,315,22h0Z"/>
          <path class="cls-39" d="M130.7,360.2c43.7.3,89,.6,133.9,3.9,46.2,3.4,93.8,8.7,145.4,16.2,87.2,12.6,173.7,29.7,257.3,46.3,107.3,21.2,218.2,43.2,331.6,55.8,126.5,14,231.4,16.3,320.6,6.8,85.1-9,161.8-36.7,227.9-82.3,30.5-21.1,57.7-44.2,84-66.6,27-23,55-46.8,86.6-68.3,61-41.6,132.2-67.5,215.9-78.4v-.5c-28.5,3.7-55.6,9.2-81.1,16.3-49.9,14-95.5,34.9-135.5,62.2-31.7,21.6-59.6,45.4-86.7,68.4-26.3,22.3-53.4,45.5-83.9,66.5-65.9,45.5-142.4,73.1-227.3,82.1-89.1,9.4-193.9,7.2-320.3-6.8-113.4-12.6-224.3-34.5-331.5-55.8-83.7-16.6-170.2-33.7-257.4-46.3-51.7-7.5-99.3-12.8-145.5-16.2-45-3.4-90.3-3.7-134-4-14.4,0-29.3-.2-44.1-.4-53.4-.7-102.9-4.2-147.9-10.2v.6c45.1,6,94.5,9.5,147.9,10.2,14.8.2,29.7.3,44.1.4h0Z"/>
          <path class="cls-43" d="M106.6,350c50.7.2,98.6.3,148.4,3.8,46.5,3.2,94.1,8.2,145.5,15.2,86.8,11.9,173.2,28.1,256.6,43.8,104.9,19.7,213.3,40.2,323.7,52.1,127.5,13.7,232.7,16.1,321.6,7.3,87.6-8.7,166.1-37.1,233.3-84.4,29.3-20.6,55.4-43,80.7-64.8,27.7-23.8,56.4-48.5,89.3-70.7,63.6-42.9,138.7-68.6,228.2-77.9v-.5c-33.7,3.5-65.5,9.4-95.1,17.5-49.4,13.6-94.4,33.9-133.9,60.5-32.9,22.2-61.6,46.9-89.4,70.7-25.3,21.7-51.4,44.2-80.6,64.7-67.1,47.2-145.4,75.5-232.7,84.2-88.8,8.8-193.9,6.5-321.3-7.3-110.4-11.9-218.8-32.3-323.6-52-83.5-15.7-169.8-32-256.7-43.8-51.4-7-99-12-145.6-15.3-49.9-3.5-97.8-3.6-148.5-3.8h-22.6c-40-.2-91.5-2.3-145.3-9.5v.6c53.8,7.1,105.3,9.2,145.3,9.4h22.6v.2Z"/>
          <path class="cls-42" d="M393.3,357.5c86.2,11.2,172,26.6,255.1,41.5,104.2,18.7,212,38,321.4,49.2,131.1,13.5,233.2,15.7,321.4,6.9,87.6-8.7,165.8-37.1,232.5-84.3,29-20.5,54.9-43,79.9-64.7,27.5-23.8,55.9-48.5,88.5-70.6,66.4-45.2,145.9-71.3,241.8-79.2v-.5c-39,3.3-75.5,9.6-109.2,18.8-49.4,13.5-94.3,33.9-133.4,60.6-32.7,22.2-61.1,46.9-88.5,70.7-25,21.7-50.9,44.1-79.9,64.7-66.6,47.1-144.6,75.4-231.9,84.1-88.1,8.8-190.1,6.6-321.1-6.9-109.4-11.2-217.1-30.6-321.3-49.2-83-14.9-168.9-30.3-255.1-41.5-92.9-12.1-190.4-17.8-316.1-18.4-38.7-.2-87.7-2.2-138.8-8.7v.6c51.1,6.5,100.1,8.5,138.8,8.7,125.7.6,223.1,6.3,315.9,18.4v-.2Z"/>
          <path class="cls-57" d="M77.1,327.7h3.5c111.3,0,213.6,6.1,312.6,18.6,83.8,10.6,167.4,24.9,248.3,38.7,106.3,18.2,216.1,36.9,327.5,47.6,93,8.9,213.7,17.4,322.6,4.9,84.3-9.7,159.9-38.3,224.7-85,27.8-20,52.7-41.8,76.8-62.9,28.2-24.7,57.4-50.2,91.3-73,66.6-44.8,150.4-70.8,249.5-77.6v-.6c-42.4,2.9-82,9.2-118.2,18.9-49.1,13.2-93.5,33-132,58.9-34,22.8-63.1,48.4-91.3,73.1-24.1,21.1-49,42.9-76.8,62.9-64.6,46.6-140,75.1-224.1,84.7-108.7,12.5-229.3,3.9-322.2-4.9-111.3-10.6-221.2-29.4-327.4-47.5-80.9-13.8-164.6-28.1-248.4-38.7-99-12.5-201.4-18.6-312.8-18.6h-5c-38.5,0-86.8-1.8-137-8v.6c50.2,6.2,98.5,8,137,8s1,0,1.5,0h-.1Z"/>
          <path class="cls-49" d="M389,333.9c83.3,10.1,166.6,23.8,247.2,37,105.8,17.3,215.1,35.2,325.7,45.4,100.6,9.3,217.6,17.2,322.8,5.1,84.4-9.7,159.8-38.3,224.2-84.9,27.6-20,52.3-41.8,76.2-62.9,28-24.7,56.9-50.2,90.6-73,68.2-46.1,154.9-72.3,258.1-78.1v-.6c-45.7,2.5-88.3,9-127,19.4-49.2,13.2-93.5,33-131.8,58.9-33.8,22.8-62.7,48.3-90.7,73-23.9,21.1-48.6,42.8-76.2,62.9-64.2,46.6-139.4,75.1-223.6,84.7-105.1,12.1-222,4.2-322.5-5.1-110.5-10.2-219.8-28.1-325.6-45.4-80.6-13.2-163.9-26.8-247.3-37-101.8-12.4-205.2-18.4-316.1-18.4s-93.4-2.5-134.4-7.3v.6c41,4.9,85.9,7.3,134.4,7.3,110.9,0,214.2,6,315.9,18.4h.1Z"/>
          <path class="cls-47" d="M378.7,320.2c85.5,9.9,171.1,23.4,253.9,36.4,103.7,16.3,210.9,33.2,319,43.2,107.6,10,221.4,17.6,324.7,6.4,85.7-9.3,161.9-37.6,226.3-84.2,28.1-20.3,53.1-42.5,77.3-64,27.5-24.4,56-49.7,89.2-72.3,69.4-47.3,158.4-73.9,264.8-79v-.6c-48.3,2.3-93.1,9-133.5,19.8-49.3,13.3-93.7,33.2-132,59.4-33.2,22.7-61.7,47.9-89.3,72.4-24.2,21.4-49.2,43.6-77.2,63.9-64.3,46.5-140.2,74.8-225.7,84-103.2,11.2-216.9,3.5-324.4-6.4-108-10-215.2-26.9-318.9-43.2-82.8-13-168.4-26.5-254-36.4-94.8-11-196.3-16.6-319.2-17.7-44.2-.4-84.4-2.6-120.9-6.7v.6c36.5,4.1,76.7,6.3,120.9,6.7,122.9,1.1,224.3,6.7,319.1,17.7h-.1Z"/>
          <path class="cls-50" d="M377.9,306.9c85.2,9.7,170.6,22.7,253.2,35.2,103.4,15.7,210.3,32,317.8,41.9,102.4,9.4,220.5,18.5,325.5,7.1,85.9-9.3,162-37.6,226.2-84.2,28-20.3,52.9-42.5,76.9-64,27.4-24.4,55.7-49.7,88.8-72.3,69.8-47.7,159.7-74.3,267.7-79.1v-.6c-49.4,2.2-95.2,8.9-136.4,19.9-49.4,13.3-93.8,33.3-132,59.4-33.1,22.6-61.4,47.9-88.8,72.4-24,21.4-48.9,43.6-76.9,63.9-64,46.5-139.9,74.8-225.6,84-104.8,11.3-222.8,2.3-325.2-7.1-107.5-9.9-214.4-26.1-317.7-41.9-82.6-12.6-168-25.6-253.2-35.2-101.8-11.5-206.4-17.5-319.7-18.2-44.4-.3-84-2.3-119.7-6.1v.6c35.7,3.8,75.3,5.8,119.7,6.1,113.2.7,217.7,6.7,319.5,18.2h0Z"/>
          <path class="cls-46" d="M377.1,293.1c85.3,9.5,170.9,22.2,253.7,34.5,103.7,15.3,210.8,31.2,318.4,41.1,113.3,10.4,223.4,18.8,324.5,7.6,85.5-9.5,161.6-37.8,226.3-84.2,28.2-20.2,53.4-42.3,77.7-63.7,27.7-24.3,56.4-49.4,89.6-72,70.1-47.4,159.7-74.1,266.6-79.3v-.6c-48.9,2.4-94.4,9.2-135.4,20.3-49.2,13.3-93.6,33.2-132,59.2-33.3,22.5-62,47.7-89.7,72-24.3,21.3-49.5,43.4-77.6,63.6-64.5,46.3-140.5,74.6-225.7,84-100.9,11.2-210.9,2.8-324.2-7.6-107.6-9.9-214.7-25.7-318.4-41.1-82.8-12.3-168.4-24.9-253.8-34.5-106-11.9-213.5-18.2-319.3-18.8-33.6-.2-75.5-1.3-119.3-5.9v.6c43.8,4.6,85.7,5.7,119.3,5.9,105.8.6,213.1,7,319.1,18.8h.2Z"/>
          <path class="cls-48" d="M383,280.3c83.1,9.3,166.7,21.2,247.5,32.8,106,15.2,215.6,30.9,325.5,40.6,101.7,9.1,217,19.3,321.5,6.7,83.6-10.1,159.2-38.6,224.6-84.6,28-19.7,53.3-41.2,77.8-62,28.6-24.3,58.2-49.4,92.4-71.9,70-46.1,157.9-72.5,261.6-78.5v-.6c-46.9,2.7-90.6,9.5-130.4,20.3-48.8,13.2-93.2,32.9-131.9,58.4-34.2,22.5-63.8,47.6-92.4,72-24.5,20.8-49.7,42.2-77.8,62-65.2,45.9-140.6,74.3-224,84.4-104.3,12.6-219.5,2.3-321.2-6.7-109.8-9.8-219.4-25.5-325.4-40.6-80.8-11.6-164.4-23.5-247.6-32.8-113.6-12.7-216.9-19.2-315.8-19.9-42.4-.3-85.9-1.5-128.8-5.9v.6c42.8,4.3,86.4,5.5,128.8,5.9,98.8.8,202.1,7.3,315.6,19.9h0Z"/>
          <path class="cls-53" d="M380.5,266.8c83.6,9,167.8,20.6,249.3,31.8,106.8,14.7,217.3,29.8,327.8,39.5l5.8.5c100,8.8,213.4,18.7,314.7,6.2,83.2-10.2,159.3-38.5,226.1-84.1,28.6-19.5,54.7-40.8,79.8-61.3,29.5-24,59.9-48.9,94.7-71.1,69.7-44.6,155.5-70.7,255.3-77.7v-.6c-44,3.1-85.4,9.8-123.4,20.1-48.7,13.2-93.3,32.6-132.7,57.8-34.8,22.3-65.3,47.1-94.7,71.2-25.2,20.5-51.2,41.8-79.8,61.3-66.7,45.5-142.5,73.7-225.5,83.9-101.1,12.4-214.4,2.5-314.3-6.2l-5.8-.5c-110.5-9.7-220.9-24.8-327.7-39.5-81.4-11.2-165.6-22.7-249.3-31.8-115.8-12.5-219.1-19.1-315.7-20-41.7-.4-84.4-1.6-126.3-5.7v.6c41.9,4.1,84.6,5.3,126.3,5.7,96.6.9,199.8,7.4,315.6,20h-.2Z"/>
          <path class="cls-52" d="M372.9,253.2c85.8,8.8,172.2,20.1,255.8,31,106.9,14,217.4,28.4,327.6,37.8l13.4,1.1c96.6,8.3,206.1,17.7,304.1,6.4,83.6-9.7,160.5-36.8,228.7-80.7,31.4-20.2,59.8-42.4,87.3-63.9,28.3-22.1,57.5-44.9,90-65.6,72.2-46,155.8-72.7,254.2-81v-.5c-42,3.6-81.7,10.6-118.5,20.9-49.5,13.8-95.4,34.1-136.5,60.3-32.5,20.7-61.8,43.5-90.1,65.6-27.5,21.4-55.9,43.6-87.3,63.8-68,43.8-144.8,70.9-228.1,80.6-97.9,11.3-207.2,1.9-303.7-6.4l-13.4-1.1c-110.2-9.4-220.7-23.9-327.6-37.8-83.6-10.9-170-22.2-255.8-31-119.3-12.3-224.4-18.6-321.6-19.4-34.2-.3-73-1.3-112.8-5.2v.6c39.9,3.8,78.7,4.9,112.8,5.1,97.1.8,202.2,7.1,321.4,19.4h.1Z"/>
          <path class="cls-51" d="M370.2,240.3c86.1,8.5,173,19.2,257,29.5,107.5,13.2,218.7,26.9,329.5,36.1,6.8.6,13.7,1.1,20.6,1.7,96,8,204.9,17.1,302.1,5.3,82.5-10.1,159.6-37.1,229.2-80.4,31.5-19.6,60.5-41.1,88.4-61.9,29.6-22,60.1-44.7,93.8-65.2,70.7-43.1,150.6-68.9,243.1-78.4v-.5c-37.2,3.9-72.6,10.4-105.9,19.5-49.6,13.6-96,33.5-137.9,59-33.7,20.5-64.3,43.3-93.9,65.2-28,20.8-56.9,42.2-88.4,61.8-69.5,43.2-146.4,70.2-228.7,80.2-97,11.8-205.8,2.7-301.8-5.3-6.9-.6-13.8-1.2-20.6-1.7-110.7-9.2-221.9-22.8-329.4-36.1-84-10.3-170.9-21.1-257-29.5-120.2-11.8-219.6-17.9-312.8-19-37.8-.5-78.3-1.5-118.9-5.1v.6c40.6,3.6,81,4.6,118.9,5.1,93.2,1.2,192.5,7.2,312.7,19h0Z"/>
          <path class="cls-11" d="M368.2,227.8c86.2,8,173.3,18.1,257.6,27.8,110,12.7,223.8,25.8,336.9,34.6,8.5.7,17.2,1.3,25.8,2,95.9,7.6,195.2,15.5,287.9,5,45.2-5.1,89.4-15.2,131.3-30,37.7-13.3,74.8-30.8,110-51.9,31.1-18.7,60.1-39.1,88.1-58.8,31.3-22,63.6-44.7,99-65.2,68.2-39.4,143.7-64,229.1-74.5v-.5c-31.4,3.9-61.7,9.7-90.4,17.4-49.7,13.3-96.6,32.5-139.4,57.3-35.4,20.5-67.8,43.2-99,65.2-28,19.7-57,40.1-88.1,58.8-74.2,44.5-155.2,72-240.8,81.8-92.6,10.5-191.8,2.6-287.6-5-8.7-.7-17.3-1.4-25.8-2-113.1-8.8-226.8-21.9-336.8-34.6-84.2-9.7-171.4-19.7-257.6-27.8-128.5-12-232.1-17.9-326-18.7-32.9-.3-68.1-1.2-103.7-4.2v.6c35.6,3,70.8,3.9,103.7,4.2,93.8.8,197.4,6.8,325.8,18.7v-.2Z"/>
          <path class="cls-54" d="M365.6,215.4c86.4,7.5,173.8,16.9,258.3,25.9,110.4,11.8,224.6,23.9,337.9,32.3,10.5.8,21.1,1.6,31.7,2.4,97.8,7.5,199,15.2,293.4,3.5,42.8-5.3,85-14.9,125.3-28.7,36.4-12.4,72.4-28.5,107-48,34.2-19.2,66-40.3,96.8-60.8,33.1-22,67.3-44.7,104.5-65,64.9-35.4,135.3-58.6,213.4-69.9v-.5c-25.1,3.7-49.4,8.5-72.8,14.6-49.9,12.9-97.4,31.5-141.2,55.5-37.3,20.4-71.5,43.1-104.6,65.1-30.8,20.4-62.6,41.6-96.8,60.7-72.7,40.7-150.7,66.5-231.8,76.5-94.2,11.6-195.3,3.9-293.1-3.6-10.7-.8-21.3-1.6-31.7-2.4-113.3-8.4-227.4-20.5-337.9-32.3-84.5-9-171.9-18.3-258.3-25.9-88.8-7.7-205.8-16.8-324-18.2-34-.4-68.7-1.4-103-4v.6c34.3,2.7,69,3.6,103,4,118.2,1.4,235.2,10.4,323.9,18.2h0Z"/>
          <path class="cls-64" d="M349,202.1c91.2,7.2,183.5,16.2,272.7,24.9,111,10.8,225.7,22,339.4,29.9,12.6.9,25.6,1.8,38.1,2.7,95.1,6.9,193.5,14,285.7,3.6,44.8-5.1,89.2-14.8,132-28.8,38.4-12.6,76.6-29,113.7-48.9,34-18.2,66-38.2,97-57.6,35-21.9,71.3-44.5,110.5-64.7,60.8-31.3,125.6-52.7,195.9-64.6v-.5c-18.2,3.1-35.9,6.8-53.3,11.1-50.2,12.5-98.4,30.5-143.3,53.6-39.2,20.2-75.5,42.8-110.5,64.7-31,19.3-63,39.3-96.9,57.6-77.9,41.8-160.4,67.9-245.1,77.5-92.1,10.5-190.4,3.3-285.4-3.6-12.6-.9-25.5-1.9-38.1-2.7-113.6-7.9-228.4-19-339.3-29.9-89.2-8.7-181.5-17.7-272.7-24.9-125.1-9.9-220.4-14.9-309.2-16.2-33.4-.5-67.4-1.3-101.3-3.7v.6c33.9,2.4,67.9,3.2,101.3,3.7,88.7,1.3,184.1,6.3,309.1,16.2h-.3Z"/>
          <path class="cls-63" d="M353.4,190.7c88.9,6.5,179,14.5,266.2,22.2,113.3,10,230.4,20.3,346.3,27.6,14.2.9,28.8,1.9,43,2.8,92.5,6.2,188.2,12.7,278.4,2.9,44.7-4.9,89.3-14.1,132.5-27.4,38.9-12,77.9-27.8,115.9-46.8,36.6-18.4,71.2-38.6,104.7-58.2,34.4-20.1,69.9-41,107.6-59.7,59-29.3,120.6-50.2,186-62.8v-.5c-12.6,2.4-25.1,5.2-37.4,8.2-51.6,12.7-101.9,31.2-149.3,54.7-37.7,18.8-73.3,39.6-107.7,59.7-33.4,19.6-68,39.9-104.6,58.2-79.7,40-163.1,64.9-247.9,74.1-90,9.8-185.6,3.3-278.1-2.9-14.2-1-28.8-1.9-43-2.8-115.9-7.3-233-17.6-346.3-27.6-87.1-7.7-177.3-15.6-266.2-22.2-96.5-7.1-211-14.5-328.2-16-28.6-.4-57.7-1.1-86.7-3v.6c29,1.9,58,2.6,86.6,3,117.2,1.5,231.6,8.9,328.1,16h.1Z"/>
          <path class="cls-61" d="M343.9,178.4c91.2,6,183.8,13.3,273.3,20.3,115.7,9.1,235.4,18.5,353.7,25.2,15.7.9,31.8,1.9,47.5,2.9,90.3,5.6,183.6,11.4,271.8,2.3,88.9-9.2,174.2-33.8,260.8-75.3,35.8-17.1,70.1-36,103.3-54.1,36.8-20.2,74.8-41,115.1-59.7,53.1-24.6,107.7-43,164.7-55.3v-.5c-4.6,1-9.2,2-13.8,3.1-52.1,12.2-103.1,29.8-151.6,52.3-40.2,18.7-78.3,39.5-115.1,59.7-33.2,18.2-67.4,37-103.2,54.1-86.4,41.4-171.5,66-260.3,75.1-88.1,9.1-181.3,3.3-271.5-2.3-15.6-1-31.8-2-47.5-2.9-118.2-6.7-237.9-16.1-353.7-25.2-89.5-7-182-14.3-273.3-20.3-124.3-8.1-228.6-13.7-333.8-14.6-22.2-.2-46.3-.7-71.5-2.1v.6c25.2,1.4,49.3,2,71.5,2.1,105.1.8,209.4,6.4,333.7,14.6h-.1Z"/>
          <path class="cls-62" d="M334,166.4c93.6,5.4,188.7,11.9,280.6,18.3,118.3,8.1,240.6,16.6,361.3,22.6,17.1.9,34.7,1.8,51.7,2.8,88.2,5,179.4,10.1,265.7,1.6,89.2-8.7,175.6-32.2,264.2-71.6,38.6-17.2,75.7-36.2,111.5-54.5,39.4-20.2,80.1-41,122.9-59.5,45.7-19.8,93.2-35.5,142.1-47v-.7c-48.7,11.5-96.7,27.4-142.7,47.3-42.8,18.5-83.6,39.4-122.9,59.5-35.8,18.4-72.9,37.3-111.5,54.5-88.5,39.4-174.7,62.8-263.7,71.5-86.2,8.4-177.3,3.3-265.4-1.6-17-1-34.7-1.9-51.7-2.8-120.7-6.1-243-14.5-361.3-22.6-91.9-6.3-186.9-12.9-280.6-18.3-105.9-6.1-218.7-12.1-332.3-13-19.7-.2-41-.6-63.1-1.7v.6c22.2,1.1,43.4,1.5,63.1,1.7,113.5.9,226.3,6.9,332.2,13h0Z"/>
          <path class="cls-59" d="M323.8,154.5c96.1,4.8,193.7,10.5,288,16.1,116.5,6.9,236.9,14,355.6,19.3,64.1,2.9,122.6,5,178.8,6.5,55.7,1.5,102.1,2.3,150.6-2.2,90.7-8.4,179.9-31.3,272.7-70,39.7-16.6,78.1-34.9,115.2-52.6,40.4-19.3,82.1-39.2,125.6-56.9,40.8-16.6,81.9-30.2,123.6-40.8v-.5c-41.9,10.7-83.6,24.4-124.1,40.9-43.5,17.7-85.3,37.7-125.7,56.9-37.1,17.7-75.5,36-115.1,52.6-92.7,38.7-181.7,61.6-272.3,69.9-48.4,4.5-94.8,3.7-150.4,2.2-56.3-1.5-114.8-3.6-178.8-6.5-118.7-5.3-239.1-12.4-355.6-19.3-94.4-5.6-191.9-11.3-288-16.1-111.4-5.5-220.5-10.6-331-11.4-17.1-.1-35.3-.5-54.2-1.3v.6c18.9.8,37.1,1.1,54.2,1.3,110.4.9,219.5,5.9,330.9,11.4h0Z"/>
          <path class="cls-58" d="M326.7,143.3c94.1,4,189.7,8.7,282.2,13.2,119.1,5.9,242.3,11.9,363.7,16.5,21.1.8,42.9,1.8,64,2.7,91.9,4.2,186.9,8.5,276.8-.5,87.9-8.8,175.9-30.7,268.9-67.1,40.8-16,80.6-33.6,119-50.7,41.4-18.4,84.2-37.4,128.5-54.3,34.7-13.3,69.3-24.6,104.2-33.9v-.6c-35.2,9.4-70.2,20.8-104.7,34-44.3,17-87.1,36-128.5,54.4-38.4,17.1-78.2,34.7-118.9,50.7-92.9,36.3-180.7,58.3-268.5,67-89.8,8.9-184.8,4.6-276.6.4-21.1-1-42.9-2-64-2.7-121.3-4.6-244.5-10.6-363.6-16.5-92.5-4.5-188.1-9.2-282.2-13.2-121.9-5.1-231.9-9.5-343.4-10.3-14.2-.1-29.2-.4-44.7-.9v.6c15.5.5,30.5.8,44.7.9,111.5.9,221.5,5.2,343.3,10.3h-.2Z"/>
          <path class="cls-60" d="M310.3,131.4c98.6,3.3,198.8,7.3,295.6,11.1,123.6,4.9,251.4,9.9,377.2,13.7,22.3.7,45.3,1.6,67.5,2.4,85.5,3.3,173.8,6.7,257.8-.3,92.1-7.7,185-29,284-64.9,43.1-15.7,85.3-33.1,126.1-49.9,44.6-18.4,90.7-37.4,138.1-54.2,25.8-9.1,51.5-17.3,77.2-24.4v-.6c-26,7.2-52,15.4-77.7,24.5-47.5,16.8-93.6,35.8-138.2,54.2-40.8,16.8-82.9,34.2-126,49.9-98.9,35.9-191.6,57.1-283.6,64.9-83.9,7-172.2,3.6-257.6.3-22.2-.9-45.2-1.8-67.5-2.4-125.8-3.8-253.6-8.8-377.2-13.7-96.9-3.8-197.1-7.7-295.6-11.1-110.3-3.7-218.3-7.2-327.4-8.3-14.7,0-29.5-.4-44.3-.9v.6c14.8.5,29.6.7,44.3.9,109,1.1,217,4.5,327.3,8.3h0Z"/>
          <path class="cls-9" d="M306,120.1c98.9,2.6,199.5,5.5,296.8,8.4,126.4,3.7,257.1,7.6,385.7,10.6,24,.6,48.7,1.4,72.7,2.1,87.6,2.8,178.1,5.8,264.4-1.9,90.9-8.1,184.5-29,286.1-63.8,42.5-14.5,84.3-30.6,124.8-46.1,47.5-18.2,96.6-37,147-53.5,16.9-5.5,33.7-10.7,50.4-15.4v-.6c-17,4.8-34,10-50.9,15.5-50.4,16.5-99.6,35.3-147.1,53.5-40.5,15.5-82.3,31.5-124.8,46-101.5,34.7-194.9,55.6-285.8,63.7-86.2,7.7-176.7,4.8-264.2,1.9-23.9-.8-48.7-1.6-72.7-2.1-128.6-3-259.3-6.9-385.7-10.6-97.3-2.9-197.8-5.8-296.8-8.4-104.8-2.7-223.6-5.8-340.4-6.7-8.7,0-17.7-.2-27-.4v.6c9.3.2,18.3.3,27,.4,116.7.9,235.5,4,340.3,6.7h.2Z"/>
          <path class="cls-18" d="M278.2,108.4l24.4.4c99,1.8,199.6,3.8,296.9,5.7,126.5,2.5,257.3,5.1,386,7.2,26.8.4,54.4,1.2,81.1,1.9,86.3,2.3,175.5,4.7,260.8-2.1,93-7.4,189.6-27.3,295.3-60.8,44.8-14.2,89.2-29.9,132.1-45.1,49-17.4,99.8-35.4,151.5-51.2,9.2-2.8,18.5-5.5,27.6-8.2v-.7c-9.3,2.7-18.7,5.4-28.1,8.3-51.8,15.8-102.5,33.8-151.5,51.2-42.9,15.2-87.2,30.9-132,45.1-105.5,33.5-202,53.3-294.9,60.8-85.2,6.8-174.4,4.4-260.6,2.1-26.7-.7-54.3-1.5-81.1-1.9-128.7-2.1-259.5-4.7-386-7.2-97.3-1.9-197.9-3.9-296.9-5.7l-24.4-.4c-105.1-1.9-213.8-3.8-320.8-4.6-6.1,0-12.4,0-18.8-.2v.6c6.1,0,12.4.2,18.8.2,106.9.7,215.6,2.7,320.7,4.6h0Z"/>
          <path class="cls-15" d="M225.1,96.8c22.4.2,44.9.5,67.3.7,101.3,1,204.3,2.1,303.9,3.1,128.9,1.3,262.1,2.7,393.2,4,29.1.3,59.1.9,88.1,1.5,85.4,1.8,173.7,3.6,258.3-2.8,94.2-7.2,193.6-26.5,303.7-59.1,45.4-13.4,90.5-28.2,134.1-42.5,50.5-16.6,102.8-33.7,155.8-48.8,1.5-.4,2.9-.8,4.4-1.2v-.6c-1.6.5-3.2.9-4.9,1.4-53,15.1-105.3,32.3-155.9,48.9-43.6,14.3-88.7,29.1-134.1,42.5-110,32.5-209.2,51.8-303.4,59-84.5,6.5-172.8,4.6-258.1,2.8-29-.6-58.9-1.2-88.1-1.5-131.1-1.2-264.3-2.6-393.2-4-99.6-1-202.6-2.1-303.9-3.1-22.4-.2-44.9-.4-67.3-.7-92.7-.9-188.6-1.9-282.9-2.4h-3.6v.6h3.6c94.3.5,190.2,1.5,282.9,2.4v-.2Z"/>
          <path class="cls-16" d="M593.1,86.6c131.2.2,266.9.3,400.3.6,31.8,0,64.4.6,96,1,84.2,1.3,171.2,2.6,255-3.5,95.6-6.9,193.1-24.6,306.7-55.6,47.9-13.1,95.6-27.5,141.7-41.5,45.9-13.9,93.2-28.3,141.1-41.4v-.6c-48,13.1-95.5,27.5-141.6,41.5s-93.8,28.5-141.6,41.5c-113.6,31-211,48.7-306.4,55.6-83.7,6-170.7,4.8-254.8,3.5-31.6-.5-64.2-1-96-1-133.5-.3-269.1-.5-400.4-.6-101.9,0-207.4-.2-311-.4-117.9-.2-233.5-.6-343.4-1.1v.6c110,.5,225.5.9,343.4,1.1,103.7.2,209.1.3,311,.4h0Z"/>
          <path class="cls-45" d="M278.4,74.9c103.5-.6,208.8-1.4,310.6-2.2,133.9-1.1,272.3-2.1,408.5-2.7,34.7,0,70.4.2,104.8.5,80.6.7,164,1.5,244.4-3.6,99-6.3,201.2-23.5,321.8-54.1,48.4-12.3,96.7-25.8,143.5-39,38.1-10.7,77-21.6,116.4-32h-2.4c-38.7,10.2-77,20.9-114.4,31.4-46.7,13.1-95.1,26.7-143.4,38.9-120.5,30.6-222.7,47.8-321.5,54.1-80.4,5.1-163.7,4.4-244.3,3.6-34.5-.3-70.1-.6-104.9-.5-136.2.6-274.6,1.7-408.5,2.7-101.8.8-207,1.6-310.6,2.2-120.9.7-230.5,1.2-339.7.8v.6c109.3.4,218.9,0,339.8-.8h0Z"/>
          <path class="cls-13" d="M586.1,58.8c136.1-2.3,276.9-4.6,415.4-6.1,38.1-.4,77.1-.3,114.9,0,78.7.3,160.2.6,239-4.1,99.1-5.9,202.3-22,324.9-50.7,50.9-11.9,101.9-25.1,151.2-37.9,23.1-6,46.5-12,70.1-18h-2.5c-22.9,5.8-45.6,11.7-68,17.5-49.3,12.8-100.3,26-151.2,37.9-122.5,28.7-225.7,44.8-324.7,50.7-78.8,4.7-160.2,4.4-238.9,4.1-37.8,0-76.8-.3-114.9,0-138.5,1.5-279.3,3.8-415.4,6.1-104.3,1.7-212.1,3.5-318.1,4.9-99.5,1.3-214.1,2.7-329.2,2.7v.6c115.2,0,229.7-1.4,329.3-2.7,106.1-1.4,213.9-3.2,318.1-4.9h0Z"/>
          <path class="cls-14" d="M582.7,44.8c138.5-3.5,281.8-7.1,422.8-9.5,41.9-.7,84.9-.8,126.4-.8,76.4,0,155.4-.2,232.2-4.5,99.2-5.5,203.4-20.6,327.9-47.4,51.3-11.1,102.9-23.1,152.8-34.8,8.6-2,17.3-4,25.9-6h-2.7c-7.9,1.8-15.8,3.7-23.6,5.5-49.9,11.7-101.5,23.7-152.8,34.7-124.5,26.8-228.6,41.9-327.7,47.4-76.7,4.3-155.7,4.4-232.1,4.5-41.5,0-84.5,0-126.4.8-141,2.4-284.2,6-422.8,9.5-106.6,2.7-216.8,5.5-325.2,7.7-98.7,2-209.1,4.3-318.8,4.6v.6c109.7-.3,220-2.6,318.8-4.6,108.4-2.2,218.6-5,325.2-7.7h0Z"/>
          <path class="cls-44" d="M579.3,30.9c140.9-4.7,286.7-9.6,430.2-12.9,46.5-1.1,94.1-1.4,140-1.7,71.3-.4,145-.9,216.9-4.4,102.6-4.9,211.7-19.5,343.2-45.7,39.1-7.8,78.4-16.1,117-24.4h-2.9c-37.8,8.1-76.2,16.2-114.4,23.9-131.4,26.2-240.4,40.8-343,45.7-71.8,3.5-145.6,3.9-216.8,4.4-46,.3-93.5.6-140.1,1.7-143.5,3.4-289.2,8.2-430.2,12.9-108.9,3.6-221.5,7.4-332.3,10.4-109.3,3-209.4,5.6-308.3,6.3v.6c98.9-.7,199-3.3,308.3-6.3,110.8-3.1,223.4-6.8,332.3-10.4h0Z"/>
        </g>
      </g>
    </g>
  </g>
</svg>