<?xml version="1.0" encoding="UTF-8"?><svg xmlns="http://www.w3.org/2000/svg" xmlns:xlink="http://www.w3.org/1999/xlink" version="1.1" viewBox="0 0 100 100"><defs><style>.cls-1 {
        fill: url(#Gradiente_sem_nome);
      }</style><linearGradient id="Gradiente_sem_nome" data-name="Gradiente sem nome" x1="10.8" y1="51.3" x2="89" y2="51.3" gradientTransform="translate(0 101.3) scale(1 -1)" gradientUnits="userSpaceOnUse"><stop offset="0" stop-color="#4633fa"/><stop offset="1" stop-color="#ff2c5e"/></linearGradient></defs><!--Generator: Adobe Illustrator 28.6.0, SVG Export Plug-In . SVG Version: 1.2.0 Build 709)--><g><g id="Camada_1"><path class="cls-1" d="M42.5,10.8c3,.5,5.1,3.4,4.6,6.5l-1.7,10.3h16.7l2-12.1c.5-3,3.4-5.1,6.5-4.6s5.1,3.4,4.6,6.5l-1.7,10.3h10.2c3,0,5.6,2.5,5.6,5.6s-2.5,5.6-5.6,5.6h-12l-3.7,22.4h10.2c3,0,5.6,2.5,5.6,5.6s-2.5,5.6-5.6,5.6h-12l-2,12.1c-.5,3-3.4,5.1-6.5,4.6s-5.1-3.4-4.6-6.5l1.7-10.3h-16.7l-2,12.1c-.5,3-3.4,5.1-6.5,4.6s-5.1-3.4-4.6-6.5l1.7-10.3h-10.2c-3,0-5.6-2.5-5.6-5.6s2.5-5.6,5.6-5.6h12l3.7-22.4h-10.2c-3,0-5.6-2.5-5.6-5.6s2.5-5.6,5.6-5.6h12l2-12.1c.5-3,3.4-5.1,6.5-4.6h0ZM43.4,38.7l-3.7,22.4h16.7l3.7-22.4h-16.7Z"/></g></g></svg>