<?xml version="1.0" encoding="UTF-8"?><svg xmlns="http://www.w3.org/2000/svg" xmlns:xlink="http://www.w3.org/1999/xlink" version="1.1" viewBox="0 0 100 100"><defs><style>.cls-1 {
        fill: url(#Gradiente_sem_nome);
      }</style><linearGradient id="Gradiente_sem_nome" data-name="Gradiente sem nome" x1="10.9" y1="51.3" x2="89" y2="51.3" gradientTransform="translate(0 101.3) scale(1 -1)" gradientUnits="userSpaceOnUse"><stop offset="0" stop-color="#4633fa"/><stop offset="1" stop-color="#ff2c5e"/></linearGradient></defs><!--Generator: Adobe Illustrator 28.6.0, SVG Export Plug-In . SVG Version: 1.2.0 Build 709)--><g><g id="Camada_1"><path class="cls-1" d="M38.8,19.3c0-4.6,3.8-8.4,8.4-8.4h5.6c4.6,0,8.4,3.8,8.4,8.4v61.5c0,4.6-3.8,8.4-8.4,8.4h-5.6c-4.6,0-8.4-3.8-8.4-8.4,0,0,0-61.5,0-61.5ZM10.9,52.8c0-4.6,3.8-8.4,8.4-8.4h5.6c4.6,0,8.4,3.8,8.4,8.4v27.9c0,4.6-3.8,8.4-8.4,8.4h-5.6c-4.6,0-8.4-3.8-8.4-8.4,0,0,0-27.9,0-27.9ZM75.1,22.1h5.6c4.6,0,8.4,3.8,8.4,8.4v50.2c0,4.6-3.8,8.4-8.4,8.4h-5.6c-4.6,0-8.4-3.8-8.4-8.4V30.4c0-4.6,3.8-8.4,8.4-8.4h0Z"/></g></g></svg>