<?xml version="1.0" encoding="UTF-8"?>
<svg xmlns="http://www.w3.org/2000/svg" xmlns:xlink="http://www.w3.org/1999/xlink" version="1.1" viewBox="0 0 76.7 76.7">
  <defs>
    <style>
      .cls-1 {
        fill: url(#Gradiente_sem_nome_2);
      }

      .cls-2 {
        fill: url(#Gradiente_sem_nome_2-2);
      }
    </style>
    <linearGradient id="Gradiente_sem_nome_2" data-name="Gradiente sem nome 2" x1="10.4" y1="49.1" x2="67.9" y2="49.1" gradientUnits="userSpaceOnUse">
      <stop offset="0" stop-color="#4633fa"/>
      <stop offset="1" stop-color="#ff2c5e"/>
    </linearGradient>
    <linearGradient id="Gradiente_sem_nome_2-2" data-name="Gradiente sem nome 2" y1="20.3" y2="20.3" xlink:href="#Gradiente_sem_nome_2"/>
  </defs>
  <!-- Generator: Adobe Illustrator 28.6.0, SVG Export Plug-In . SVG Version: 1.2.0 Build 709)  -->
  <g>
    <g id="Camada_1">
      <g>
        <path class="cls-1" d="M67.1,32.3H11.2c-.4,0-.8.4-.8.8v26.4c0,3.5,2.9,6.4,6.4,6.4h44.7c3.5,0,6.4-2.9,6.4-6.4v-26.4c0-.4-.4-.8-.8-.8ZM32.5,54.6c-.4.3-.8.5-1.3.5s-1.1-.2-1.5-.7l-3.2-3.7c-.6-.7-.7-1.7,0-2.5l3.2-4.3c.7-.9,1.9-1.1,2.8-.4.9.7,1.1,1.9.4,2.8l-2.2,3,2.1,2.5c.7.8.6,2.1-.2,2.8ZM42.7,44l-3.1,11.2c-.2.9-1,1.5-1.9,1.5s-.4,0-.5,0c-1.1-.3-1.7-1.4-1.4-2.5l3.1-11.2c.3-1.1,1.4-1.7,2.5-1.4,1.1.3,1.7,1.4,1.4,2.5ZM51.9,50l-3.2,4.3c-.4.5-1,.8-1.6.8s-.8-.1-1.2-.4c-.9-.7-1.1-1.9-.4-2.8l2.2-3-2.1-2.5c-.7-.8-.6-2.1.2-2.8.8-.7,2.1-.6,2.8.2l3.2,3.7c.6.7.7,1.7,0,2.5Z"/>
        <path class="cls-2" d="M61.5,12.4H16.8c-3.5,0-6.4,2.9-6.4,6.4v8.7c0,.4.4.8.8.8h55.9c.4,0,.8-.4.8-.8v-8.7c0-3.5-2.9-6.4-6.4-6.4ZM20,23.6c-1.8,0-3.2-1.4-3.2-3.2s1.4-3.2,3.2-3.2,3.2,1.4,3.2,3.2-1.4,3.2-3.2,3.2ZM30.4,23.6c-1.8,0-3.2-1.4-3.2-3.2s1.4-3.2,3.2-3.2,3.2,1.4,3.2,3.2-1.4,3.2-3.2,3.2Z"/>
      </g>
    </g>
  </g>
</svg>